{"glyphs":{"0":{"ha":1192,"x_min":38,"x_max":1154,"o":"m 596 975 q 752 963 679 975 q 901 918 825 951 q 1031 832 978 885 q 1119 690 1085 779 q 1153 485 1153 601 q 1005 125 1153 250 q 581 0 857 0 q 381 27 472 0 q 228 100 290 54 q 122 208 165 146 q 58 338 78 269 q 38 479 38 406 q 188 842 38 708 q 596 975 338 975 m 596 251 q 632 251 618 251 q 672 256 646 251 q 715 269 697 261 q 753 294 732 278 q 788 335 775 311 q 809 398 800 360 q 818 485 818 436 q 809 573 818 533 q 788 637 800 613 q 753 679 775 661 q 715 706 732 697 q 672 718 697 714 q 632 723 646 722 q 596 724 618 724 q 576 724 583 724 q 551 722 568 724 q 523 717 535 721 q 494 708 511 714 q 464 693 476 703 q 436 671 451 683 q 411 640 421 658 q 392 599 401 621 q 378 546 383 576 q 374 479 374 515 q 382 395 374 432 q 403 335 390 358 q 436 294 415 311 q 474 269 457 276 q 517 256 490 261 q 557 251 543 251 q 596 251 571 251 z "},"1":{"ha":978,"x_min":38,"x_max":940,"o":"m 678 278 l 939 278 l 939 0 l 40 0 l 40 278 l 358 278 l 358 607 q 274 549 335 574 q 153 515 214 525 q 43 504 93 504 l 40 661 l 38 779 q 74 782 54 781 q 134 790 94 783 q 208 810 174 796 q 276 844 242 824 q 330 899 310 864 q 350 979 350 935 l 678 979 l 678 278 z "},"2":{"ha":1163,"x_min":38,"x_max":1125,"o":"m 649 321 q 556 308 607 315 q 483 299 504 301 q 441 290 463 296 q 407 275 419 283 l 1103 275 l 1103 0 l 182 0 l 38 0 l 38 118 l 39 118 q 60 248 39 189 q 110 348 81 307 q 190 422 139 389 q 282 474 242 456 q 388 510 322 493 q 490 534 454 528 q 588 551 525 540 q 596 553 593 551 q 715 579 671 564 q 776 613 758 594 q 793 658 793 632 q 785 682 793 671 q 758 705 778 693 q 699 724 739 717 q 600 731 658 731 q 518 724 554 731 q 459 709 482 718 q 420 684 436 700 q 397 658 404 668 q 384 628 389 647 q 379 603 379 610 q 378 583 379 597 l 182 585 l 39 585 q 41 621 39 600 q 62 692 43 642 q 113 785 81 742 q 600 978 258 978 q 773 966 694 978 q 904 935 851 954 q 998 890 957 917 q 1063 835 1039 863 q 1101 774 1086 807 q 1120 713 1115 740 q 1125 658 1125 686 q 1114 578 1125 615 q 1087 513 1103 540 q 1042 460 1071 485 q 990 418 1014 435 q 925 387 965 401 q 858 363 885 372 q 785 345 831 354 q 717 332 740 336 q 649 321 693 328 z "},"3":{"ha":1174,"x_min":38,"x_max":1136,"o":"m 543 394 l 543 581 q 551 579 546 581 q 670 585 622 581 q 742 601 718 590 q 776 624 767 611 q 786 654 786 636 q 632 743 786 738 q 604 743 621 743 q 589 743 603 743 l 588 743 l 589 743 q 583 744 589 743 q 574 744 578 744 q 474 733 514 744 q 417 703 433 722 q 395 668 400 683 q 390 633 390 653 l 38 633 q 42 685 38 660 q 60 746 46 711 q 97 811 74 781 q 160 873 119 842 q 256 926 201 904 q 393 961 311 947 q 574 975 475 975 q 634 975 611 975 q 706 972 657 975 q 788 964 754 969 q 870 948 822 958 q 951 923 918 938 q 1022 885 985 908 q 1081 831 1058 861 q 1119 760 1104 801 q 1133 668 1133 718 q 1126 610 1133 638 q 1106 560 1119 583 q 1069 519 1092 538 q 1015 490 1046 500 q 1083 453 1056 481 q 1124 389 1111 425 q 1136 313 1136 353 q 588 0 1136 0 q 508 1 539 0 q 414 8 478 1 q 306 28 350 15 q 208 67 263 40 q 119 131 153 94 q 62 228 86 168 q 38 361 38 288 l 390 361 q 395 303 390 324 q 419 265 400 283 q 478 238 438 246 q 588 231 518 231 q 650 232 619 231 q 786 321 786 242 q 769 360 786 344 q 697 385 753 375 q 543 394 642 394 z "},"4":{"ha":1232,"x_min":38,"x_max":1194,"o":"m 1057 378 l 1193 378 l 1193 103 l 1057 103 l 1057 0 l 736 0 l 736 103 l 38 103 l 38 426 q 172 529 39 428 q 485 769 304 631 q 757 976 665 907 l 1057 976 l 1057 858 l 1057 378 m 418 376 l 736 376 l 736 638 l 418 376 z "},"5":{"ha":1157,"x_min":38,"x_max":1119,"o":"m 894 619 q 1017 554 967 596 q 1092 457 1067 513 q 1118 333 1118 401 q 1103 234 1118 279 q 1066 156 1089 189 q 1006 98 1043 124 q 934 56 968 72 q 852 28 900 40 q 770 12 804 17 q 688 3 736 7 q 615 0 639 0 q 556 0 592 0 q 542 0 546 0 q 415 4 475 0 q 311 15 356 8 q 228 30 267 21 q 163 48 189 39 q 115 68 136 57 q 80 88 93 79 q 57 107 67 97 q 44 122 47 117 q 38 132 40 128 l 249 310 q 252 306 251 307 q 263 297 253 304 q 285 285 272 290 q 322 273 297 281 q 375 260 346 265 q 450 252 404 256 q 550 249 496 249 q 749 265 696 249 q 803 326 803 282 q 790 365 803 349 q 747 391 776 381 q 672 406 718 401 q 558 411 625 411 q 322 354 375 411 l 42 424 l 110 851 l 132 975 l 256 975 l 1060 975 l 1053 715 l 388 715 l 365 581 q 458 637 382 615 q 604 658 535 658 q 894 619 782 658 z "},"6":{"ha":1206,"x_min":38,"x_max":1168,"o":"m 613 649 q 668 649 646 649 q 737 646 690 649 q 817 638 783 643 q 899 621 851 632 q 981 594 947 610 q 1053 554 1015 579 q 1113 498 1090 529 q 1151 424 1136 467 q 1167 328 1167 381 q 1162 271 1167 299 q 1142 210 1157 243 q 1104 147 1128 176 q 1039 90 1081 118 q 943 43 997 63 q 810 12 889 24 q 636 0 732 0 q 239 68 375 0 q 61 293 103 136 l 60 293 q 60 294 60 294 q 38 488 38 375 q 58 651 38 578 q 110 775 78 725 q 192 863 143 825 q 290 921 240 900 q 403 955 340 942 q 517 972 465 968 q 631 975 569 975 q 766 973 717 975 q 914 953 815 971 q 1117 901 1013 936 l 1040 661 q 840 703 963 686 q 631 719 717 719 q 415 683 474 719 q 347 539 356 647 q 446 619 371 590 q 613 649 521 649 m 593 233 q 683 237 644 233 q 765 251 722 240 q 830 288 807 263 q 853 350 853 313 q 782 432 853 397 q 593 467 711 467 q 429 429 493 467 q 365 350 365 392 q 442 260 383 286 q 593 233 500 233 z "},"7":{"ha":1156,"x_min":38,"x_max":1118,"o":"m 38 975 l 1117 975 l 1117 704 q 1113 703 1115 704 q 1072 683 1092 693 q 1002 640 1051 672 q 912 573 953 608 q 821 478 871 538 q 735 352 771 418 q 674 194 700 286 q 644 0 649 101 l 296 0 q 318 189 299 99 q 367 349 338 279 q 439 488 396 419 q 522 604 482 556 q 614 704 563 653 l 38 704 l 38 975 z "},"8":{"ha":1242,"x_min":38,"x_max":1206,"o":"m 1013 536 q 1151 462 1097 521 q 1204 319 1204 403 q 1194 224 1204 267 q 1172 150 1185 182 q 1128 94 1158 118 q 1075 55 1099 71 q 1004 28 1051 39 q 926 11 957 17 q 831 3 894 6 q 730 1 767 1 q 617 0 693 0 q 507 1 543 0 q 409 4 471 1 q 316 13 347 7 q 238 28 285 18 q 167 56 190 39 q 115 97 144 72 q 72 153 85 121 q 48 228 58 185 q 38 325 38 272 q 93 472 38 410 q 226 542 149 535 q 185 588 201 560 q 164 642 169 617 q 158 692 158 667 q 267 904 158 833 q 614 975 376 975 q 972 905 861 975 q 1083 696 1083 835 q 1065 603 1083 649 q 1013 536 1046 558 m 621 768 q 468 690 468 768 q 501 631 468 651 q 621 611 535 611 q 740 632 706 611 q 774 690 774 653 q 621 768 774 768 m 621 204 q 728 210 686 204 q 797 232 771 217 q 833 269 822 247 q 843 326 843 292 q 788 419 843 390 q 621 447 732 447 q 533 442 571 447 q 464 424 496 436 q 415 386 432 411 q 399 326 399 361 q 423 253 399 279 q 494 215 447 226 q 621 204 542 204 z "},"9":{"ha":1199,"x_min":38,"x_max":1161,"o":"m 567 975 q 1025 865 890 975 q 1160 488 1160 754 q 1034 114 1160 228 q 621 0 908 0 q 72 75 326 0 l 175 306 q 355 255 296 264 q 599 246 414 246 q 797 305 724 246 q 867 439 869 364 q 814 374 850 400 q 708 333 778 347 q 533 318 638 318 q 365 326 438 318 q 230 358 293 335 q 126 417 167 381 q 61 513 85 454 q 38 650 38 571 q 52 747 38 703 q 89 823 67 792 q 147 879 111 854 q 215 920 182 904 q 293 947 247 936 q 371 964 339 958 q 447 972 403 969 q 513 975 492 975 q 567 975 533 975 m 568 528 q 688 536 632 528 q 789 567 743 544 q 850 624 835 590 q 830 702 850 671 q 771 748 810 733 q 694 767 732 763 q 603 772 656 772 q 522 770 554 772 q 458 761 490 768 q 406 741 425 754 q 376 705 388 728 q 364 650 364 682 q 413 563 364 599 q 568 528 461 528 z "},"\u0000":{"ha":0,"x_min":0,"x_max":0,"o":""},"\n":{"ha":0,"x_min":0,"x_max":0,"o":""},"\r":{"ha":0,"x_min":0,"x_max":0,"o":""}," ":{"ha":660,"x_min":0,"x_max":0,"o":""},"!":{"ha":386,"x_min":38,"x_max":349,"o":"m 347 0 l 38 0 l 38 178 l 347 178 l 347 0 m 347 289 l 38 289 l 38 972 l 347 972 l 347 289 z "},"\"":{"ha":731,"x_min":38,"x_max":678,"o":"m 82 969 l 82 1147 l 339 1147 l 339 969 l 119 793 l 38 831 l 82 969 m 419 1147 l 676 1147 l 676 969 l 457 793 l 376 831 l 419 969 l 419 1147 z "},"#":{"ha":1496,"x_min":38,"x_max":1458,"o":"m 1354 597 l 1172 597 l 1099 403 l 1311 403 l 1208 164 l 1010 163 l 949 0 l 681 0 l 742 163 l 490 163 l 431 0 l 161 0 l 222 161 l 38 161 l 142 400 l 311 400 l 383 596 l 185 594 l 288 835 l 472 835 l 525 972 l 793 972 l 742 835 l 992 836 l 1043 972 l 1311 972 l 1261 836 l 1458 836 l 1354 597 m 831 401 l 903 597 l 653 596 l 579 401 l 831 401 z "},"%":{"ha":1681,"x_min":38,"x_max":1643,"o":"m 683 689 q 645 537 683 600 q 533 442 607 474 q 353 410 458 410 q 212 433 274 410 q 113 497 150 457 q 57 585 76 536 q 38 686 38 633 q 77 839 38 774 q 190 939 117 904 q 361 974 263 974 q 451 967 410 974 q 538 940 493 960 q 613 890 582 921 q 664 808 644 860 q 683 689 683 757 m 279 689 q 287 641 279 660 q 310 615 294 622 q 335 607 325 608 q 361 606 344 606 q 386 607 376 606 q 411 615 396 608 q 434 641 426 622 q 442 690 442 660 q 434 740 442 721 q 411 767 426 760 q 386 776 396 774 q 361 778 376 778 q 339 776 349 778 q 313 767 329 774 q 288 740 297 760 q 279 689 279 719 m 1319 564 q 1410 557 1368 564 q 1497 531 1453 550 q 1572 482 1540 513 q 1622 399 1603 451 q 1642 281 1642 347 q 1556 72 1642 144 q 1311 0 1471 0 q 1170 24 1232 0 q 1072 87 1108 47 q 1016 175 1035 126 q 997 278 997 224 q 1084 487 997 410 q 1319 564 1171 564 m 1319 196 q 1344 198 1335 196 q 1369 207 1354 200 q 1393 233 1385 214 q 1401 281 1401 251 q 1393 331 1401 311 q 1369 358 1385 350 q 1344 367 1354 365 q 1319 368 1335 368 q 1297 366 1307 368 q 1272 357 1288 364 q 1248 330 1257 350 q 1239 279 1239 310 q 1247 231 1239 250 q 1269 206 1254 213 q 1293 197 1283 199 q 1319 196 1303 196 m 1058 974 l 1432 974 l 632 0 l 258 0 l 1058 974 z "},"&":{"ha":1478,"x_min":18,"x_max":1440,"o":"m 1439 447 q 1431 432 1436 442 q 1404 393 1425 422 q 1359 335 1383 364 q 1294 266 1335 306 q 1206 193 1253 226 l 1439 0 l 1054 0 l 969 67 q 574 0 788 0 q 136 118 288 0 q 42 322 19 208 q 247 531 65 446 q 331 564 286 549 q 194 708 229 619 q 251 890 154 818 q 628 972 364 972 q 993 772 989 972 q 938 644 993 699 q 783 543 882 590 l 1011 354 q 1088 447 1058 396 l 1439 447 m 685 767 q 638 801 685 790 q 543 799 590 811 q 496 758 496 788 q 518 721 496 742 q 564 688 540 700 l 586 675 q 591 677 588 675 q 605 684 594 679 q 625 695 615 689 q 646 710 635 701 q 665 726 657 718 q 679 745 674 735 q 685 767 685 756 m 393 310 q 447 247 393 271 q 581 219 500 222 q 756 235 661 217 l 511 428 q 393 310 393 369 z "},"'":{"ha":383,"x_min":38,"x_max":379,"o":"m 104 1150 l 379 1150 l 379 940 l 81 774 l 38 831 l 104 940 l 104 1150 z "},"(":{"ha":526,"x_min":38,"x_max":489,"o":"m 489 0 l 174 0 q 159 23 168 8 q 126 88 150 38 q 85 193 103 139 q 53 331 68 247 q 38 501 38 415 q 52 667 38 588 q 86 801 67 747 q 126 894 106 854 q 160 954 146 935 l 174 972 l 489 972 q 472 953 482 967 q 434 894 461 940 q 387 797 407 849 q 350 664 367 746 q 333 495 333 582 q 349 326 333 408 q 388 187 365 243 q 434 86 411 131 q 472 21 457 42 l 489 0 z "},")":{"ha":526,"x_min":38,"x_max":489,"o":"m 353 0 l 38 0 q 44 7 40 3 q 58 27 47 11 q 78 60 68 43 q 103 104 89 76 q 129 161 117 132 q 153 229 142 190 q 174 308 165 268 q 188 397 183 349 q 193 496 193 446 q 177 663 193 582 q 138 798 161 744 q 93 893 115 851 q 54 954 71 935 l 38 972 l 353 972 q 367 953 358 967 q 400 895 376 940 q 442 799 424 850 q 474 668 460 749 q 489 501 489 588 q 475 332 489 415 q 441 192 461 249 q 401 90 421 135 q 367 22 381 44 l 353 0 z "},"*":{"ha":496,"x_min":38,"x_max":458,"o":"m 457 846 l 325 833 l 433 739 l 304 646 l 244 782 l 188 644 l 58 739 l 161 831 l 38 840 l 88 992 l 192 931 l 164 1051 l 324 1051 l 297 931 l 408 997 l 457 846 z "},"+":{"ha":1028,"x_min":82,"x_max":947,"o":"m 946 665 l 946 357 l 669 357 l 669 79 l 360 79 l 360 357 l 82 357 l 82 665 l 360 665 l 360 943 l 669 943 l 669 665 l 946 665 z "},",":{"ha":388,"x_min":-17,"x_max":325,"o":"m 50 215 l 325 215 l 325 6 l 26 -161 l -17 -104 l 50 6 l 50 215 z "},"-":{"ha":929,"x_min":111,"x_max":818,"o":"m 817 278 l 111 278 l 111 588 l 817 588 l 817 278 z "},".":{"ha":465,"x_min":82,"x_max":381,"o":"m 379 0 l 82 0 l 82 242 l 379 242 l 379 0 z "},"/":{"ha":790,"x_min":35,"x_max":751,"o":"m 36 -4 l 410 968 l 750 968 l 376 -4 l 36 -4 z "},":":{"ha":453,"x_min":86,"x_max":367,"o":"m 365 0 l 86 0 l 86 242 l 365 242 l 365 0 m 365 563 l 86 563 l 86 806 l 365 806 l 365 563 z "},";":{"ha":453,"x_min":38,"x_max":375,"o":"m 96 -11 l 96 231 l 375 231 l 375 -11 l 81 -178 l 38 -121 l 96 -11 m 375 551 l 96 551 l 96 794 l 375 794 l 375 551 z "},"<":{"ha":776,"x_min":38,"x_max":739,"o":"m 375 972 l 738 972 l 392 486 l 738 0 l 375 0 l 38 486 l 375 972 z "},"=":{"ha":890,"x_min":92,"x_max":799,"o":"m 797 496 l 92 496 l 92 806 l 797 806 l 797 496 m 797 0 l 92 0 l 92 310 l 797 310 l 797 0 z "},">":{"ha":776,"x_min":38,"x_max":739,"o":"m 38 972 l 400 972 l 738 486 l 400 0 l 38 0 l 383 486 l 38 972 z "},"?":{"ha":983,"x_min":38,"x_max":946,"o":"m 522 1000 q 731 960 633 1000 q 887 852 828 921 q 946 701 946 783 q 929 610 946 653 q 886 538 913 568 q 828 480 860 507 q 764 430 796 453 q 706 385 732 407 q 663 340 679 364 q 647 289 647 315 l 338 289 q 358 392 338 347 q 408 461 378 436 q 473 508 438 486 q 539 547 508 531 q 590 587 569 563 q 610 642 610 611 q 546 731 610 707 q 417 724 482 754 q 353 631 353 694 l 38 631 q 64 767 38 704 q 145 884 90 831 q 297 969 200 938 q 522 1000 393 1000 m 647 0 l 338 0 l 338 178 l 647 178 l 647 0 z "},"@":{"ha":1479,"x_min":38,"x_max":1442,"o":"m 38 390 q 91 656 38 547 q 254 833 144 765 q 519 931 364 900 q 892 961 675 961 q 1385 750 1301 961 q 1422 587 1410 688 q 1438 394 1435 486 q 1440 144 1440 301 l 1176 144 q 1175 218 1176 178 q 867 131 1042 131 q 779 132 815 131 q 690 139 743 133 q 601 154 638 144 q 525 183 565 164 q 460 230 485 203 q 418 299 435 257 q 401 393 401 340 q 415 463 401 431 q 453 520 429 496 q 510 564 476 544 q 583 597 543 583 q 669 619 622 610 q 763 631 715 628 q 861 635 810 635 q 1144 585 1018 635 q 1058 694 1118 668 q 869 719 999 719 q 667 703 764 719 q 542 678 569 688 q 496 663 514 669 q 475 654 489 660 q 427 626 461 649 q 367 575 393 603 q 320 498 342 547 q 299 392 299 449 q 327 243 299 310 q 421 124 356 176 q 582 48 486 72 q 823 33 678 24 q 1146 92 968 43 q 1166 49 1151 76 q 1196 -8 1181 21 q 1226 -63 1211 -36 q 1251 -107 1242 -90 l 1261 -124 q 1242 -131 1254 -126 q 1185 -149 1231 -136 q 1088 -171 1140 -161 q 947 -188 1035 -181 q 758 -196 858 -196 q 224 -50 411 -196 q 38 390 38 96 m 1156 411 q 914 447 1121 447 q 801 442 844 447 q 739 424 758 436 q 719 393 719 413 q 900 335 719 335 q 1067 356 990 335 q 1156 396 1144 378 q 1156 411 1156 408 z "},"A":{"ha":1458,"x_min":42,"x_max":1419,"o":"m 982 972 l 1419 0 l 1044 0 l 971 164 l 489 164 l 415 0 l 43 0 l 479 972 l 982 972 m 604 444 l 856 444 l 729 700 l 604 444 z "},"B":{"ha":1217,"x_min":38,"x_max":1179,"o":"m 1178 274 q 1163 156 1178 204 q 1112 72 1149 108 q 1008 17 1075 35 q 843 0 942 0 l 313 0 l 38 0 l 38 975 l 732 975 q 899 960 831 975 q 1009 912 968 944 q 1068 835 1050 879 q 1086 731 1086 792 q 1019 540 1086 599 q 1074 515 1049 532 q 1125 467 1100 497 q 1164 388 1150 438 q 1178 274 1178 338 m 363 704 l 363 611 l 728 611 q 760 625 747 611 q 774 658 774 639 q 760 691 774 678 q 728 704 747 704 l 363 704 m 838 269 q 872 283 858 269 q 886 317 886 297 q 872 351 886 338 q 838 365 858 365 l 363 365 l 363 269 l 838 269 z "},"C":{"ha":1401,"x_min":38,"x_max":1364,"o":"m 694 983 q 1010 952 878 983 q 1218 862 1142 921 q 1329 725 1294 803 q 1364 544 1364 647 l 1032 544 q 1027 563 1031 551 q 1003 601 1024 574 q 949 649 982 628 q 848 688 915 671 q 692 706 781 706 q 553 693 613 706 q 460 661 494 681 q 406 612 426 642 q 379 553 386 582 q 372 490 372 525 q 388 404 372 442 q 438 335 403 367 q 536 288 472 304 q 692 271 600 271 q 856 285 786 271 q 957 318 925 299 q 1008 358 989 338 q 1029 392 1026 378 l 1032 406 l 1364 406 q 1346 277 1364 335 q 1282 165 1328 219 q 1163 75 1236 111 q 974 17 1090 39 q 703 -4 857 -4 q 386 24 514 -4 q 181 115 258 53 q 71 264 104 176 q 38 479 38 351 q 80 715 38 617 q 207 872 122 813 q 411 957 292 931 q 694 983 531 983 z "},"D":{"ha":1297,"x_min":38,"x_max":1260,"o":"m 708 0 l 38 0 l 38 972 l 704 972 q 872 962 799 972 q 1021 920 946 951 q 1146 837 1096 889 q 1227 696 1196 785 q 1258 486 1258 607 q 1225 292 1258 378 q 1138 152 1192 206 q 1010 63 1083 99 q 862 14 936 28 q 708 0 788 0 m 686 265 q 817 295 763 265 q 896 374 871 325 q 921 485 921 422 q 865 645 921 585 q 686 706 808 706 l 361 706 l 361 265 l 686 265 z "},"E":{"ha":1175,"x_min":49,"x_max":1126,"o":"m 49 975 l 1125 975 l 1125 704 l 372 704 l 372 618 l 1078 618 l 1078 358 l 372 358 l 372 271 l 1125 271 l 1125 0 l 49 0 l 49 975 z "},"F":{"ha":1122,"x_min":38,"x_max":1083,"o":"m 38 976 l 1083 976 l 1083 679 l 361 679 l 361 585 l 926 585 l 926 299 l 361 299 l 361 0 l 38 0 l 38 976 z "},"G":{"ha":1401,"x_min":38,"x_max":1364,"o":"m 569 571 l 1364 571 l 1364 0 l 1104 0 l 1104 101 q 955 22 1042 47 q 703 -4 868 -4 q 440 19 554 -4 q 251 84 326 43 q 127 187 175 125 q 58 319 79 249 q 38 479 38 390 q 72 665 38 581 q 167 807 107 749 q 310 906 228 865 q 490 965 393 946 q 694 983 586 983 q 951 965 843 983 q 1130 910 1058 947 q 1247 824 1201 872 q 1326 706 1292 776 l 1024 604 q 692 706 953 706 q 525 689 592 706 q 424 640 458 672 q 375 568 389 607 q 361 475 361 529 q 374 390 361 425 q 420 324 386 354 q 522 277 454 293 q 692 261 590 261 q 813 267 763 261 q 893 288 863 274 q 937 311 924 301 q 971 342 950 321 l 569 342 l 569 571 z "},"H":{"ha":1304,"x_min":38,"x_max":1265,"o":"m 942 975 l 1265 975 l 1265 0 l 942 0 l 942 339 l 361 339 l 361 0 l 38 0 l 38 975 l 361 975 l 361 638 l 942 638 l 942 975 z "},"I":{"ha":422,"x_min":49,"x_max":374,"o":"m 49 0 l 49 975 l 372 975 l 372 0 l 49 0 z "},"J":{"ha":1188,"x_min":38,"x_max":1149,"o":"m 1149 406 q 1147 381 1149 396 q 1135 325 1146 367 q 1104 245 1124 283 q 1044 160 1085 207 q 947 80 1003 114 q 799 23 890 46 q 597 0 708 0 q 329 46 443 0 q 162 158 215 92 q 78 289 108 224 q 43 400 47 354 l 38 446 l 354 446 q 355 437 354 443 q 360 412 356 431 q 373 376 365 393 q 398 340 381 360 q 439 304 415 319 q 501 279 463 289 q 586 269 539 269 q 672 277 633 269 q 735 297 711 285 q 778 322 760 308 q 804 351 796 336 q 818 377 813 365 q 825 396 824 389 l 825 404 l 825 653 l 433 653 l 433 975 l 1149 975 l 1149 406 z "},"K":{"ha":1243,"x_min":38,"x_max":1206,"o":"m 1204 975 l 672 483 l 1204 0 l 765 0 l 465 292 l 361 196 l 361 0 l 38 0 l 38 975 l 361 975 l 361 589 l 765 975 l 1204 975 z "},"L":{"ha":1107,"x_min":38,"x_max":1069,"o":"m 361 324 l 1068 324 l 1068 0 l 38 0 l 38 975 l 361 975 l 361 324 z "},"M":{"ha":1479,"x_min":38,"x_max":1442,"o":"m 868 0 l 601 0 l 361 428 l 361 0 l 38 0 l 38 975 l 424 975 l 739 435 l 1054 975 l 1442 975 l 1442 0 l 1118 0 l 1118 431 l 868 0 z "},"N":{"ha":1319,"x_min":38,"x_max":1282,"o":"m 1281 0 l 839 0 l 361 588 l 361 0 l 38 0 l 38 975 l 489 975 l 958 397 l 958 975 l 1281 975 l 1281 0 z "},"O":{"ha":1400,"x_min":38,"x_max":1363,"o":"m 685 990 q 918 976 817 990 q 1106 926 1019 961 q 1247 835 1192 892 q 1332 694 1301 779 q 1363 493 1363 608 q 1335 296 1363 379 q 1258 155 1308 213 q 1124 62 1207 97 q 938 11 1042 26 q 694 -4 833 -4 q 194 122 350 -4 q 38 511 38 247 q 197 873 38 756 q 685 990 357 990 m 697 251 q 925 311 844 251 q 1006 493 1006 371 q 921 673 1006 611 q 693 735 836 735 q 561 719 618 735 q 467 671 504 703 q 413 594 431 639 q 394 493 394 550 q 471 317 394 383 q 697 251 547 251 z "},"P":{"ha":1181,"x_min":38,"x_max":1143,"o":"m 38 975 l 722 975 q 775 974 750 975 q 845 965 800 972 q 927 942 890 957 q 1006 900 964 928 q 1076 834 1047 872 q 1123 735 1104 796 q 1142 601 1142 675 q 1124 465 1142 526 q 1079 363 1107 404 q 1013 291 1051 322 q 936 242 974 260 q 858 215 899 225 q 788 201 817 204 q 733 197 758 197 l 361 197 l 361 0 l 38 0 l 38 975 m 713 485 q 840 590 840 485 q 834 631 840 614 q 815 658 828 647 q 790 675 803 668 q 760 684 778 682 q 732 688 743 686 q 707 689 721 689 l 361 689 l 361 485 l 713 485 z "},"Q":{"ha":1492,"x_min":38,"x_max":1454,"o":"m 1453 176 l 1294 -99 q 1083 57 1186 -36 q 694 1 936 1 q 198 126 358 1 q 38 507 38 250 q 67 669 38 596 q 147 793 96 743 q 260 880 197 843 q 399 938 324 917 q 544 967 474 958 q 685 976 614 976 q 808 972 747 976 q 937 952 868 967 q 1065 915 1006 938 q 1180 853 1124 892 q 1276 765 1236 815 q 1339 644 1315 715 q 1363 489 1363 574 q 1322 272 1363 365 q 1453 176 1388 215 m 697 251 q 927 306 849 251 q 1006 489 1006 360 q 985 590 1006 546 q 932 658 964 633 q 856 699 900 683 q 774 721 813 715 q 693 726 735 726 q 593 715 642 726 q 498 680 544 704 q 423 608 451 656 q 394 497 394 561 q 427 360 394 414 q 526 278 460 306 q 697 251 593 251 z "},"R":{"ha":1232,"x_min":38,"x_max":1194,"o":"m 38 975 l 754 975 q 807 974 782 975 q 877 965 832 972 q 959 944 922 957 q 1038 903 996 931 q 1108 840 1079 876 q 1155 746 1136 803 q 1174 617 1174 689 q 994 288 1174 386 l 1194 0 l 821 1 l 654 231 l 361 231 l 361 0 l 38 0 l 38 975 m 724 515 q 844 607 844 515 q 718 690 844 690 l 361 690 l 361 515 l 724 515 z "},"S":{"ha":1336,"x_min":38,"x_max":1299,"o":"m 636 972 q 860 966 767 972 q 1025 943 953 960 q 1141 902 1097 926 q 1213 836 1185 878 q 1253 744 1242 794 q 1264 619 1264 693 l 919 619 q 912 654 919 642 q 878 678 904 667 q 794 695 851 690 q 644 700 738 700 q 464 694 521 700 q 392 681 407 689 q 376 651 376 672 q 415 627 378 633 q 636 606 451 621 q 640 604 639 606 q 1106 551 1007 575 q 1272 447 1235 521 q 1297 303 1297 397 q 1288 193 1297 236 q 1252 114 1279 150 q 1182 58 1225 78 q 1063 24 1139 38 q 888 5 986 10 q 644 0 790 0 q 472 3 544 0 q 335 13 399 6 q 231 31 272 19 q 156 61 189 42 q 103 103 122 81 q 72 163 85 126 q 56 239 60 199 q 51 335 51 279 l 386 335 q 394 299 386 311 q 431 278 401 286 q 512 267 460 269 q 660 264 564 264 q 693 264 671 264 q 885 269 851 264 q 919 306 919 275 q 896 329 919 324 q 765 342 872 335 q 636 351 688 347 q 510 363 554 358 q 402 374 467 367 q 304 390 338 382 q 225 409 271 397 q 156 436 179 421 q 106 472 133 451 q 67 519 79 493 q 47 580 56 546 q 38 654 38 614 q 44 742 38 703 q 64 811 51 781 q 99 865 76 842 q 146 906 121 889 q 210 935 171 924 q 290 954 250 947 q 388 965 329 961 q 502 971 446 969 q 636 972 558 972 z "},"T":{"ha":1364,"x_min":38,"x_max":1326,"o":"m 38 975 l 1325 975 l 1325 653 l 843 653 l 843 0 l 521 0 l 521 653 l 38 653 l 38 975 z "},"U":{"ha":1335,"x_min":38,"x_max":1297,"o":"m 671 0 q 307 43 453 0 q 106 192 161 86 q 51 388 65 271 q 38 742 38 506 l 39 975 l 381 975 l 381 539 q 385 465 381 497 q 406 393 389 432 q 454 328 424 354 q 540 285 485 303 q 672 268 596 268 q 802 285 747 268 q 885 328 857 303 q 931 392 914 353 q 951 464 947 432 q 954 539 954 496 l 954 975 l 1296 975 l 1296 742 q 1283 388 1297 506 q 1229 192 1269 271 q 1147 98 1200 136 q 1018 39 1093 60 q 860 9 943 18 q 671 0 776 0 z "},"V":{"ha":1457,"x_min":38,"x_max":1419,"o":"m 1049 975 l 1419 975 l 942 0 l 518 0 l 38 975 l 408 975 l 729 285 l 1049 975 z "},"W":{"ha":1979,"x_min":38,"x_max":1942,"o":"m 1940 975 l 1532 4 l 1533 0 l 1221 0 l 1222 4 l 992 519 l 764 0 l 451 0 l 38 975 l 379 975 l 607 424 l 835 975 l 1144 975 l 1375 429 l 1600 975 l 1940 975 z "},"X":{"ha":1463,"x_min":38,"x_max":1425,"o":"m 1424 975 l 981 488 l 1419 0 l 983 0 l 731 276 l 474 0 l 38 0 l 481 488 l 42 975 l 478 975 l 732 699 l 988 975 l 1424 975 z "},"Y":{"ha":1342,"x_min":38,"x_max":1304,"o":"m 921 975 l 1303 975 l 831 286 l 831 0 l 508 0 l 508 286 l 38 975 l 419 975 l 669 639 l 921 975 z "},"Z":{"ha":1160,"x_min":17,"x_max":1122,"o":"m 1121 975 l 1121 661 l 490 269 l 1121 269 l 1121 0 l 35 0 l 33 0 l 17 0 l 17 311 l 658 704 l 17 704 l 17 975 l 1121 975 z "},"\\":{"ha":829,"x_min":74,"x_max":790,"o":"m 415 972 l 789 0 l 449 0 l 74 972 l 415 972 z "},"_":{"ha":782,"x_min":38,"x_max":744,"o":"m 743 0 l 38 0 l 38 310 l 743 310 l 743 0 z "},"a":{"ha":1221,"x_min":7,"x_max":1182,"o":"m 1182 -1 l 863 -1 q 861 72 863 33 q 521 -15 714 -15 q 424 -14 464 -15 q 326 -7 385 -12 q 228 8 268 -1 q 143 38 188 18 q 71 84 99 57 q 25 153 43 111 q 7 247 7 196 q 49 360 7 313 q 165 436 92 408 q 326 477 239 464 q 515 490 414 490 q 826 439 688 490 q 733 548 799 522 q 524 574 667 574 q 299 558 407 574 q 162 533 192 542 q 111 517 132 524 l 39 736 q 543 824 275 824 q 657 820 601 824 q 789 803 713 817 q 926 768 865 790 q 1040 703 986 746 q 1119 606 1094 661 q 1171 374 1160 514 q 1182 -1 1182 235 m 557 189 q 743 210 658 189 q 840 250 828 232 q 840 265 840 263 q 574 301 801 301 q 408 288 458 301 q 358 247 358 275 q 557 189 358 189 z "},"b":{"ha":1293,"x_min":38,"x_max":1256,"o":"m 38 975 l 361 975 l 361 721 q 742 806 531 806 q 1117 707 981 806 q 1254 413 1254 608 q 1228 240 1254 314 q 1157 119 1201 165 q 1044 45 1113 74 q 903 6 976 17 q 735 -4 829 -4 q 361 89 493 -4 l 361 3 l 38 3 l 38 975 m 361 450 l 361 340 q 468 258 400 278 q 671 238 536 238 q 910 403 910 238 q 904 454 910 431 q 890 494 899 478 q 866 523 882 510 q 840 544 850 536 q 807 557 829 551 q 775 565 785 563 q 742 568 765 567 q 715 569 718 569 q 690 569 711 569 q 361 450 406 569 z "},"c":{"ha":1239,"x_min":38,"x_max":1201,"o":"m 599 810 q 833 792 729 810 q 1005 744 938 774 q 1117 674 1072 714 q 1182 591 1163 633 q 1201 504 1201 549 l 876 456 q 873 467 876 460 q 853 492 869 474 q 811 524 836 510 q 735 549 786 538 q 619 561 685 561 q 506 551 554 561 q 431 525 457 540 q 390 487 406 510 q 371 445 375 464 q 367 401 367 426 q 369 366 367 382 q 381 330 372 350 q 407 294 389 310 q 451 266 425 279 q 521 246 478 253 q 619 239 564 239 q 710 244 669 239 q 777 259 751 250 q 823 279 803 268 q 853 301 843 290 q 870 322 864 313 q 878 336 876 331 l 879 342 l 1201 297 q 1184 208 1201 250 q 1123 125 1167 165 q 1013 56 1079 85 q 843 9 947 26 q 607 -8 739 -8 q 378 13 478 -8 q 216 69 279 33 q 112 157 153 104 q 54 269 71 210 q 38 400 38 328 q 174 702 38 594 q 599 810 310 810 z "},"d":{"ha":1293,"x_min":38,"x_max":1256,"o":"m 932 972 l 1254 972 l 1254 0 l 932 0 l 932 86 q 558 -7 800 -7 q 453 -3 500 -7 q 350 10 406 0 q 251 39 294 21 q 167 89 208 57 q 98 163 125 121 q 54 269 71 206 q 38 410 38 332 q 80 584 38 507 q 194 708 122 661 q 358 778 267 754 q 551 803 449 803 q 932 718 763 803 l 932 972 m 932 338 l 932 447 q 603 567 888 567 q 597 567 601 567 q 569 567 579 567 q 537 565 558 567 q 501 558 515 563 q 466 547 486 554 q 433 526 446 539 q 407 497 419 514 q 388 456 394 481 q 382 400 382 431 q 622 235 382 235 q 824 255 757 235 q 932 338 892 275 z "},"e":{"ha":1235,"x_min":38,"x_max":1206,"o":"m 624 824 q 872 799 767 824 q 1056 717 978 774 q 1169 562 1133 660 q 1194 326 1206 464 l 369 326 q 438 265 376 289 q 621 242 499 242 q 834 256 728 242 q 994 283 940 269 l 1047 297 l 1186 72 q 1171 65 1182 69 q 1115 47 1160 60 q 1013 25 1069 35 q 854 8 956 15 q 632 0 753 0 q 385 19 490 0 q 215 74 281 39 q 108 161 149 108 q 53 274 68 214 q 38 413 38 333 q 185 715 38 607 q 624 824 333 824 m 626 575 q 496 564 550 575 q 417 535 442 553 q 381 501 392 518 q 369 468 369 485 l 867 468 q 812 544 867 514 q 626 575 757 575 z "},"f":{"ha":915,"x_min":38,"x_max":878,"o":"m 649 735 q 617 734 625 735 q 591 733 610 733 q 567 732 572 733 q 547 728 561 731 q 528 722 532 725 q 515 713 524 718 q 503 699 506 707 q 495 681 500 690 q 490 658 490 671 q 489 628 489 644 l 878 628 l 878 404 l 481 404 l 481 0 l 157 0 l 157 404 l 38 404 l 38 628 l 163 628 q 240 899 163 822 q 492 975 318 975 q 633 972 567 975 q 742 965 700 969 q 817 957 785 961 q 864 950 850 953 l 878 947 l 878 701 q 649 735 794 735 z "},"g":{"ha":1293,"x_min":38,"x_max":1256,"o":"m 932 790 l 1254 790 l 1254 110 q 1111 -244 1254 -131 q 646 -357 968 -357 q 478 -352 558 -357 q 339 -340 397 -347 q 231 -323 281 -332 q 150 -304 182 -314 q 95 -287 118 -294 q 63 -275 72 -279 l 53 -271 l 158 -21 q 172 -31 163 -25 q 217 -54 181 -37 q 297 -83 253 -71 q 416 -106 340 -96 q 578 -115 492 -115 q 690 -108 639 -115 q 775 -89 740 -101 q 838 -60 810 -76 q 881 -26 865 -43 q 908 10 897 -8 q 924 44 919 28 q 930 72 928 60 q 932 93 932 85 l 932 100 l 932 133 q 797 33 908 75 q 551 -8 686 -8 q 394 2 467 -8 q 255 39 322 13 q 141 106 188 65 q 66 210 94 146 q 38 358 38 275 q 54 506 38 440 q 98 617 71 572 q 167 697 125 663 q 251 749 208 731 q 350 779 294 768 q 453 794 406 790 q 558 797 500 797 q 932 699 800 797 l 932 790 m 932 368 l 932 429 q 903 486 932 461 q 827 525 875 511 q 722 547 779 539 q 599 554 664 554 q 365 394 365 554 q 379 326 365 356 q 418 281 393 297 q 467 253 443 264 q 523 238 492 242 q 570 233 554 233 q 604 232 586 232 q 644 233 626 232 q 701 237 661 233 q 774 249 742 240 q 841 272 806 258 q 900 311 876 286 q 932 368 924 336 z "},"h":{"ha":1211,"x_min":38,"x_max":1172,"o":"m 1124 647 q 1163 443 1154 571 q 1172 64 1172 315 l 1172 0 l 849 0 l 849 265 q 849 276 849 268 q 849 317 849 303 q 847 360 849 332 q 842 403 846 388 q 832 444 839 419 q 815 483 825 468 q 790 515 806 497 q 756 541 775 532 q 709 556 736 550 q 650 563 682 563 q 361 476 453 563 l 361 0 l 38 0 l 38 972 l 361 972 l 361 690 q 738 810 517 810 q 827 808 789 810 q 915 796 865 806 q 1002 769 965 786 q 1072 722 1039 753 q 1124 647 1106 690 z "},"i":{"ha":408,"x_min":42,"x_max":367,"o":"m 42 804 l 365 804 l 365 0 l 42 0 l 42 804 m 42 1024 l 365 1024 l 365 867 l 42 867 l 42 1024 z "},"j":{"ha":681,"x_min":38,"x_max":643,"o":"m 319 803 l 642 803 l 642 139 l 642 108 q 633 -42 642 19 q 602 -158 625 -103 q 538 -247 579 -214 q 428 -306 496 -281 q 266 -340 361 -331 q 39 -349 171 -350 q 38 -255 39 -339 q 38 -92 38 -171 q 145 -89 104 -92 q 221 -76 186 -86 q 272 -51 256 -65 q 301 -9 289 -37 q 316 54 313 19 q 319 144 319 89 l 319 803 m 319 1022 l 642 1022 l 642 867 l 319 867 l 319 1022 z "},"k":{"ha":1203,"x_min":38,"x_max":1164,"o":"m 722 804 l 1164 804 l 699 401 l 1164 0 l 722 0 l 460 242 l 361 146 l 361 0 l 38 0 l 38 972 l 361 972 l 361 499 l 722 804 z "},"l":{"ha":408,"x_min":42,"x_max":367,"o":"m 42 86 l 42 964 l 42 972 l 365 972 l 365 0 l 42 0 l 42 86 z "},"m":{"ha":1839,"x_min":38,"x_max":1800,"o":"m 1756 640 q 1787 501 1776 589 q 1799 331 1797 413 q 1800 63 1800 249 l 1800 0 l 1476 0 l 1476 268 q 1478 315 1476 285 q 1480 365 1479 344 q 1478 413 1481 385 q 1471 460 1476 442 q 1453 501 1465 479 q 1423 535 1442 522 q 1376 556 1404 547 q 1308 564 1347 564 q 1171 531 1239 564 q 1069 457 1103 499 q 1076 63 1076 358 l 1076 0 l 757 0 l 757 268 q 758 315 757 283 q 760 365 760 346 q 758 414 760 385 q 750 461 756 443 q 732 501 744 479 q 701 535 719 522 q 653 556 682 547 q 586 564 624 564 q 361 451 440 564 l 361 0 l 38 0 l 38 804 l 361 804 l 361 706 q 511 784 436 757 q 696 811 586 811 q 891 783 811 811 q 1017 672 971 754 q 1419 811 1179 811 q 1503 808 1467 811 q 1580 794 1539 804 q 1651 765 1621 783 q 1710 716 1682 747 q 1756 640 1738 685 z "},"n":{"ha":1181,"x_min":38,"x_max":1143,"o":"m 1094 640 q 1135 448 1128 565 q 1143 64 1143 331 l 1143 0 l 819 0 l 819 265 q 819 278 819 269 q 819 319 819 304 q 817 361 819 333 q 812 405 815 389 q 801 445 808 421 q 783 484 793 469 q 756 515 772 499 q 719 542 740 532 q 669 558 699 551 q 606 564 640 564 q 463 538 517 564 q 364 465 410 513 l 364 0 l 38 0 l 38 804 l 364 804 l 364 693 q 433 740 408 725 q 501 774 457 754 q 596 803 544 794 q 714 811 647 811 q 829 806 779 811 q 934 783 879 800 q 1030 731 989 767 q 1094 640 1071 694 z "},"o":{"ha":1268,"x_min":43,"x_max":1231,"o":"m 624 810 q 808 801 726 810 q 972 765 890 792 q 1108 693 1054 738 q 1196 574 1163 649 q 1229 400 1229 500 q 1188 206 1229 286 q 1067 78 1147 125 q 881 12 986 32 q 632 -8 775 -8 q 381 13 486 -8 q 197 80 275 33 q 81 206 119 126 q 43 400 43 286 q 74 571 43 497 q 157 689 106 644 q 285 761 208 733 q 442 799 361 789 q 624 810 524 810 m 635 219 q 822 260 757 219 q 886 400 886 301 q 861 492 886 454 q 795 549 836 531 q 715 574 754 567 q 631 582 675 582 q 567 577 599 582 q 501 560 535 572 q 444 528 468 547 q 403 477 419 508 q 388 407 388 446 q 448 265 388 311 q 635 219 508 219 z "},"p":{"ha":1282,"x_min":38,"x_max":1244,"o":"m 38 -268 l 38 800 l 361 800 l 361 696 q 728 800 511 800 q 833 797 786 800 q 935 783 881 793 q 1033 754 990 772 q 1116 705 1075 736 q 1184 631 1157 674 q 1227 527 1211 589 q 1243 389 1243 465 q 1202 215 1243 292 q 1089 93 1161 139 q 927 24 1017 47 q 735 0 838 0 q 506 32 613 0 q 361 103 399 64 l 361 -268 l 38 -268 m 682 236 q 694 237 686 236 q 724 240 701 238 q 767 247 747 242 q 813 265 788 253 q 856 293 838 276 q 886 337 874 310 q 899 397 899 364 q 885 469 899 439 q 851 517 872 499 q 794 545 829 535 q 720 559 758 556 q 628 563 682 563 q 461 533 535 563 q 361 465 388 504 l 361 335 q 404 297 378 314 q 460 269 431 279 q 522 252 490 260 q 581 242 553 244 q 633 238 610 239 q 668 236 656 236 l 682 236 z "},"q":{"ha":1285,"x_min":38,"x_max":1247,"o":"m 924 797 l 1247 797 l 1247 -271 l 924 -271 l 924 103 q 781 31 889 64 q 547 -3 672 -3 q 392 12 465 -3 q 253 57 318 26 q 140 133 188 88 q 65 242 93 178 q 38 386 38 307 q 54 524 38 463 q 98 628 71 586 q 166 702 125 671 q 249 751 207 733 q 347 780 292 769 q 449 794 401 790 q 553 797 496 797 q 924 690 774 797 l 924 797 m 924 335 l 924 458 q 825 529 900 499 q 654 560 750 560 q 576 557 610 560 q 510 548 543 554 q 456 530 478 542 q 417 500 435 518 q 392 456 400 482 q 383 394 383 429 q 406 315 383 349 q 460 266 428 281 q 524 243 492 251 q 578 235 556 235 l 600 233 q 627 233 610 233 q 691 238 644 233 q 777 252 738 243 q 859 283 817 261 q 924 335 901 304 z "},"r":{"ha":1071,"x_min":38,"x_max":1033,"o":"m 703 804 q 1021 725 900 804 q 1032 718 1031 719 l 911 471 q 875 488 899 478 q 786 517 851 499 q 663 539 721 535 q 565 533 611 542 q 493 516 519 525 q 434 484 467 507 q 394 453 401 461 q 361 422 386 446 l 361 0 l 38 0 l 38 806 l 61 806 l 361 806 l 361 806 l 361 693 q 703 804 450 804 z "},"s":{"ha":1183,"x_min":53,"x_max":1144,"o":"m 575 501 q 810 494 718 501 q 972 472 903 488 q 1076 426 1040 457 q 1127 353 1111 396 q 1143 246 1143 311 q 1135 151 1143 189 q 1104 80 1128 113 q 1042 28 1081 47 q 940 -6 1004 8 q 788 -25 875 -19 q 579 -31 701 -31 q 81 39 156 -31 l 171 269 q 335 233 204 247 q 592 218 465 218 q 653 218 614 218 q 804 222 768 218 q 840 242 840 225 q 571 288 840 288 q 384 294 461 288 q 241 317 307 300 q 136 362 175 333 q 76 435 97 390 q 54 543 54 481 q 62 625 54 589 q 88 688 69 661 q 128 735 106 715 q 187 769 150 756 q 262 792 224 783 q 357 804 300 800 q 468 810 414 808 q 599 813 522 813 q 874 801 768 813 q 1027 775 981 790 q 1126 732 1074 760 l 1026 511 q 831 552 961 535 q 578 569 701 569 q 546 569 567 569 q 397 565 431 569 q 364 540 364 561 q 575 501 365 501 z "},"t":{"ha":1050,"x_min":38,"x_max":1011,"o":"m 632 264 q 707 269 667 264 q 779 281 747 274 q 838 295 811 288 q 881 308 865 303 q 896 313 897 313 l 1011 63 q 950 44 990 54 q 777 15 910 33 q 501 -4 644 -4 q 390 1 433 -4 q 310 23 346 6 q 254 66 274 40 q 221 140 235 92 q 203 250 207 189 q 199 406 199 311 l 199 567 l 38 567 l 38 808 l 199 808 l 199 976 l 521 976 l 521 808 l 914 808 l 914 567 l 521 567 l 521 406 q 521 398 521 403 q 522 378 521 393 q 527 349 524 363 q 538 319 531 336 q 558 291 546 303 q 589 272 569 279 q 632 264 608 264 z "},"u":{"ha":1263,"x_min":38,"x_max":1225,"o":"m 906 806 l 1225 806 l 1225 0 l 906 0 l 906 124 q 551 1 783 1 q 258 42 364 1 q 100 193 151 83 q 50 389 63 272 q 38 742 38 506 l 39 806 l 358 806 l 358 540 q 358 536 358 539 q 359 483 358 501 q 365 432 360 465 q 378 380 369 399 q 403 337 386 361 q 445 300 421 313 q 508 278 469 288 q 594 268 546 268 q 906 394 765 268 l 906 806 z "},"v":{"ha":1364,"x_min":53,"x_max":1310,"o":"m 950 806 l 1308 806 l 893 0 l 469 0 l 54 806 l 415 806 l 681 285 l 950 806 z "},"w":{"ha":1879,"x_min":38,"x_max":1842,"o":"m 1510 806 l 1842 806 l 1489 0 l 1176 0 l 940 436 l 703 0 l 390 0 l 38 806 l 376 806 l 564 333 l 815 806 l 1060 806 l 1308 344 l 1510 806 z "},"x":{"ha":1274,"x_min":38,"x_max":1236,"o":"m 1236 806 l 889 403 l 1236 0 l 835 0 l 639 222 l 443 0 l 38 0 l 389 403 l 38 806 l 443 806 l 639 583 l 835 806 l 1236 806 z "},"y":{"ha":1315,"x_min":38,"x_max":1278,"o":"m 474 25 l 38 796 l 414 796 l 661 346 l 893 796 l 1276 796 l 699 -275 l 315 -275 l 474 25 z "},"z":{"ha":1125,"x_min":38,"x_max":1088,"o":"m 38 806 l 1086 806 l 1086 549 l 1076 549 l 533 258 l 1086 258 l 1086 0 l 39 0 l 38 0 l 38 258 l 50 258 l 625 549 l 38 549 l 38 806 z "}," ":{"ha":782,"x_min":0,"x_max":0,"o":""},"¡":{"ha":386,"x_min":38,"x_max":349,"o":"m 347 794 l 38 794 l 38 972 l 347 972 l 347 794 m 347 0 l 38 0 l 38 685 l 347 685 l 347 0 z "},"­":{"ha":0,"x_min":0,"x_max":0,"o":""},"¿":{"ha":983,"x_min":38,"x_max":946,"o":"m 631 369 q 946 369 665 369 q 919 233 946 296 q 838 116 893 169 q 687 31 783 63 q 461 0 590 0 q 253 40 350 0 q 97 148 156 79 q 38 299 38 217 q 60 403 38 354 q 115 483 82 451 q 188 546 149 515 q 260 600 226 576 q 315 653 293 624 q 338 711 338 682 l 647 711 q 626 608 647 653 q 576 539 606 564 q 510 492 546 514 q 444 453 475 469 q 394 413 414 438 q 374 358 374 389 q 400 294 374 319 q 465 264 426 268 q 540 267 503 260 q 604 303 578 275 q 631 369 631 331 m 647 822 l 338 822 l 338 1000 l 647 1000 l 647 822 z "},"À":{"ha":1453,"x_min":38,"x_max":1415,"o":"m 978 972 l 1415 0 l 1040 0 l 967 164 l 485 164 l 411 0 l 38 0 l 475 972 l 978 972 m 600 444 l 851 444 l 725 700 l 600 444 m 1001 1256 l 1001 1046 l 450 1119 l 450 1333 l 1001 1256 z "},"Á":{"ha":1453,"x_min":38,"x_max":1415,"o":"m 978 972 l 1415 0 l 1040 0 l 967 164 l 485 164 l 411 0 l 38 0 l 475 972 l 978 972 m 600 444 l 851 444 l 725 700 l 600 444 m 1001 1333 l 1001 1119 l 450 1046 l 450 1256 l 1001 1333 z "},"Â":{"ha":1453,"x_min":38,"x_max":1415,"o":"m 978 972 l 1415 0 l 1040 0 l 967 164 l 485 164 l 411 0 l 38 0 l 475 972 l 978 972 m 600 444 l 851 444 l 725 700 l 600 444 m 1069 1036 l 732 1115 l 382 1036 l 382 1253 l 732 1343 l 1069 1260 l 1069 1036 z "},"Ã":{"ha":1453,"x_min":38,"x_max":1415,"o":"m 978 972 l 1415 0 l 1040 0 l 967 164 l 485 164 l 411 0 l 38 0 l 475 972 l 978 972 m 600 444 l 851 444 l 725 700 l 600 444 m 1000 1061 q 891 1032 950 1033 q 778 1046 832 1031 q 671 1076 725 1061 q 558 1090 617 1092 q 449 1061 499 1089 l 449 1306 q 558 1334 499 1333 q 671 1319 617 1335 q 778 1289 725 1304 q 891 1274 832 1274 q 1000 1303 950 1275 l 1000 1061 z "},"Ä":{"ha":1453,"x_min":38,"x_max":1415,"o":"m 978 972 l 1415 0 l 1040 0 l 967 164 l 485 164 l 411 0 l 38 0 l 475 972 l 978 972 m 600 444 l 851 444 l 725 700 l 600 444 m 492 1051 q 422 1065 454 1051 q 372 1103 390 1079 q 353 1157 353 1128 q 394 1231 353 1200 q 492 1261 435 1261 q 561 1247 529 1261 q 611 1209 593 1233 q 629 1157 629 1185 q 589 1082 629 1113 q 492 1051 549 1051 m 1057 1082 q 1037 1067 1057 1082 q 960 1051 1017 1051 q 862 1082 903 1051 q 821 1156 821 1113 q 862 1231 821 1200 q 960 1261 903 1261 q 1029 1247 997 1261 q 1079 1209 1061 1233 q 1097 1157 1097 1185 q 1057 1082 1097 1113 z "},"Å":{"ha":1453,"x_min":38,"x_max":1415,"o":"m 978 972 l 1415 0 l 1040 0 l 967 164 l 485 164 l 411 0 l 38 0 l 475 972 l 978 972 m 600 444 l 851 444 l 725 700 l 600 444 m 726 1032 q 520 1088 606 1032 q 435 1223 435 1144 q 520 1357 435 1301 q 726 1413 606 1413 q 933 1357 847 1413 q 1019 1222 1019 1301 q 980 1127 1019 1171 q 873 1058 940 1083 q 726 1032 806 1032 m 790 1272 q 777 1283 790 1272 q 726 1293 764 1293 q 663 1272 689 1293 q 636 1222 636 1251 q 648 1187 636 1203 q 681 1161 660 1171 q 726 1151 701 1151 q 790 1172 764 1151 q 817 1222 817 1193 q 790 1272 817 1251 z "},"Æ":{"ha":1813,"x_min":38,"x_max":1775,"o":"m 1138 618 l 1775 618 l 1775 358 l 1254 358 l 1294 271 l 1772 271 l 1772 0 l 1049 0 l 1049 1 l 1040 1 l 967 165 l 485 165 l 411 1 l 38 1 l 475 974 l 932 974 l 932 975 l 1771 975 l 1771 704 l 1099 704 l 1138 618 m 600 446 l 851 446 l 725 701 l 600 446 z "},"Ç":{"ha":1401,"x_min":38,"x_max":1364,"o":"m 692 265 q 1019 368 957 265 q 1032 401 1031 386 l 1364 401 q 1347 276 1364 332 q 1288 167 1331 219 q 1178 78 1246 115 q 1003 18 1111 42 q 754 -8 896 -6 q 746 -51 747 -37 q 850 -62 815 -51 q 894 -89 885 -72 q 904 -139 904 -106 q 689 -301 904 -301 l 446 -297 l 482 -178 l 621 -178 q 685 -146 679 -178 q 665 -118 690 -125 q 651 -115 658 -115 l 496 -117 l 529 -1 q 297 46 392 11 q 146 141 203 81 q 63 282 89 201 q 38 474 38 363 q 80 710 38 613 q 207 866 122 807 q 411 952 292 925 q 694 979 531 979 q 1010 948 878 979 q 1218 857 1142 917 q 1329 719 1294 797 q 1364 540 1364 642 l 1032 540 q 1029 549 1031 543 q 1019 572 1028 554 q 998 603 1011 589 q 958 637 985 618 q 898 669 932 656 q 810 692 864 682 q 692 701 756 701 q 573 693 625 701 q 487 669 521 685 q 430 633 453 653 q 394 588 407 614 q 377 538 382 563 q 372 485 372 514 q 388 399 372 436 q 438 330 403 361 q 536 282 472 299 q 692 265 600 265 z "},"È":{"ha":1153,"x_min":38,"x_max":1115,"o":"m 38 975 l 1114 975 l 1114 704 l 361 704 l 361 618 l 1067 618 l 1067 358 l 361 358 l 361 271 l 1114 271 l 1114 0 l 38 0 l 38 975 m 869 1275 l 869 1033 l 318 1108 l 318 1353 l 869 1275 z "},"É":{"ha":1153,"x_min":38,"x_max":1115,"o":"m 38 975 l 1114 975 l 1114 704 l 361 704 l 361 618 l 1067 618 l 1067 358 l 361 358 l 361 271 l 1114 271 l 1114 0 l 38 0 l 38 975 m 851 1344 l 851 1099 l 300 1025 l 300 1267 l 851 1344 z "},"Ê":{"ha":1153,"x_min":38,"x_max":1115,"o":"m 38 975 l 1114 975 l 1114 704 l 361 704 l 361 618 l 1067 618 l 1067 358 l 361 358 l 361 271 l 1114 271 l 1114 0 l 153 0 l 38 0 l 38 975 m 936 1032 l 600 1110 l 250 1032 l 250 1249 l 600 1338 l 936 1254 l 936 1032 z "},"Ë":{"ha":1153,"x_min":38,"x_max":1115,"o":"m 342 1053 q 288 1061 314 1053 q 244 1083 263 1069 q 215 1117 226 1097 q 204 1158 204 1136 q 244 1232 204 1201 q 342 1263 285 1263 q 411 1249 379 1263 q 462 1210 443 1235 q 481 1158 481 1186 q 462 1105 481 1129 q 411 1067 443 1081 q 342 1053 379 1053 m 810 1053 q 740 1067 772 1053 q 690 1105 708 1081 q 672 1158 672 1129 q 713 1232 672 1201 q 810 1263 753 1263 q 908 1232 867 1263 q 949 1158 949 1201 q 908 1083 949 1114 q 810 1053 867 1053 m 38 975 l 1114 975 l 1114 704 l 361 704 l 361 618 l 1067 618 l 1067 358 l 361 358 l 361 271 l 1114 271 l 1114 0 l 38 0 l 38 975 z "},"Í":{"ha":446,"x_min":38,"x_max":408,"o":"m 61 975 l 385 975 l 385 0 l 61 0 l 61 975 m 38 1267 l 408 1344 l 408 1099 l 38 1025 l 38 1267 z "},"Î":{"ha":588,"x_min":38,"x_max":550,"o":"m 132 975 l 456 975 l 456 0 l 132 0 l 132 975 m 299 1338 l 550 1254 l 550 1032 l 299 1110 l 38 1032 l 38 1249 l 299 1338 z "},"Ï":{"ha":757,"x_min":38,"x_max":719,"o":"m 217 975 l 540 975 l 540 0 l 217 0 l 217 975 m 314 1185 q 274 1110 314 1142 q 176 1079 233 1079 q 107 1094 139 1079 q 56 1132 75 1108 q 38 1185 38 1156 q 78 1259 38 1228 q 176 1290 119 1290 q 246 1276 214 1290 q 296 1237 278 1261 q 314 1185 314 1213 m 581 1290 q 650 1276 618 1290 q 700 1237 682 1261 q 718 1185 718 1213 q 678 1110 718 1142 q 581 1079 638 1079 q 511 1094 543 1079 q 461 1132 479 1108 q 443 1185 443 1156 q 453 1225 443 1206 q 483 1259 464 1244 q 527 1282 501 1274 q 581 1290 553 1290 z "},"Ñ":{"ha":1319,"x_min":38,"x_max":1282,"o":"m 958 975 l 1281 975 l 1281 0 l 839 0 l 361 588 l 361 0 l 38 0 l 38 975 l 489 975 l 958 397 l 958 975 m 935 1051 q 826 1022 885 1024 q 714 1036 768 1021 q 606 1067 660 1051 q 493 1081 551 1082 q 383 1051 435 1079 l 383 1296 q 493 1324 435 1324 q 606 1310 551 1325 q 714 1279 660 1294 q 826 1265 768 1264 q 935 1293 885 1265 l 935 1051 z "},"Ò":{"ha":1400,"x_min":38,"x_max":1363,"o":"m 685 994 q 808 989 747 994 q 937 969 868 983 q 1065 931 1006 954 q 1180 868 1124 907 q 1276 778 1236 829 q 1339 656 1315 728 q 1363 497 1363 583 q 1342 329 1363 404 q 1280 200 1321 254 q 1182 107 1239 146 q 1049 44 1125 68 q 886 10 972 21 q 694 0 800 0 q 198 126 358 0 q 38 515 38 253 q 67 681 38 606 q 147 806 96 756 q 260 895 197 857 q 399 954 324 933 q 544 985 474 975 q 685 994 614 994 m 697 256 q 927 310 849 256 q 1006 497 1006 365 q 985 600 1006 556 q 932 670 964 644 q 856 712 900 696 q 774 733 813 728 q 693 739 735 739 q 593 728 642 739 q 498 692 544 717 q 423 619 451 667 q 394 506 394 571 q 468 317 394 379 q 697 256 542 256 m 976 1265 l 976 1024 l 424 1097 l 424 1343 l 976 1265 z "},"Ó":{"ha":1400,"x_min":38,"x_max":1363,"o":"m 685 994 q 808 989 747 994 q 937 969 868 983 q 1065 931 1006 954 q 1180 868 1124 907 q 1276 778 1236 829 q 1339 656 1315 728 q 1363 497 1363 583 q 1342 329 1363 404 q 1280 200 1321 254 q 1182 107 1239 146 q 1049 44 1125 68 q 886 10 972 21 q 694 0 800 0 q 198 126 358 0 q 38 515 38 253 q 67 681 38 606 q 147 806 96 756 q 260 895 197 857 q 399 954 324 933 q 544 985 474 975 q 685 994 614 994 m 697 256 q 927 310 849 256 q 1006 497 1006 365 q 985 600 1006 556 q 932 670 964 644 q 856 712 900 696 q 774 733 813 728 q 693 739 735 739 q 593 728 642 739 q 498 692 544 717 q 423 619 451 667 q 394 506 394 571 q 468 317 394 379 q 697 256 542 256 m 976 1343 l 976 1097 l 424 1024 l 424 1265 l 976 1343 z "},"Ô":{"ha":1400,"x_min":38,"x_max":1363,"o":"m 685 994 q 808 989 747 994 q 937 969 868 983 q 1065 931 1006 954 q 1180 868 1124 907 q 1276 778 1236 829 q 1339 656 1315 728 q 1363 497 1363 583 q 1342 329 1363 404 q 1280 200 1321 254 q 1182 107 1239 146 q 1049 44 1125 68 q 886 10 972 21 q 694 0 800 0 q 198 126 358 0 q 38 515 38 253 q 67 681 38 606 q 147 806 96 756 q 260 895 197 857 q 399 954 324 933 q 544 985 474 975 q 685 994 614 994 m 697 256 q 927 310 849 256 q 1006 497 1006 365 q 992 585 1006 546 q 952 651 978 625 q 897 694 926 676 q 830 722 867 713 q 760 735 793 731 q 693 739 728 739 q 593 728 642 739 q 498 692 544 717 q 423 619 451 667 q 394 506 394 571 q 427 365 394 421 q 526 283 460 310 q 697 256 593 256 m 1043 1031 l 707 1108 l 357 1031 l 357 1247 l 707 1336 l 1043 1253 l 1043 1031 z "},"Õ":{"ha":1400,"x_min":38,"x_max":1363,"o":"m 685 994 q 808 989 747 994 q 937 969 868 983 q 1065 931 1006 954 q 1180 868 1124 907 q 1276 778 1236 829 q 1339 656 1315 728 q 1363 497 1363 583 q 1342 329 1363 404 q 1280 200 1321 254 q 1182 107 1239 146 q 1049 44 1125 68 q 886 10 972 21 q 694 0 800 0 q 198 126 358 0 q 38 515 38 253 q 67 681 38 606 q 147 806 96 756 q 260 895 197 857 q 399 954 324 933 q 544 985 474 975 q 685 994 614 994 m 697 256 q 927 310 849 256 q 1006 497 1006 365 q 992 585 1006 546 q 952 651 978 625 q 897 694 926 676 q 830 722 867 713 q 760 735 793 731 q 693 739 728 739 q 593 728 642 739 q 498 692 544 717 q 423 619 451 667 q 394 506 394 571 q 468 317 394 379 q 697 256 542 256 m 976 1061 q 867 1032 925 1033 q 754 1046 808 1031 q 646 1076 700 1061 q 533 1090 592 1092 q 424 1061 475 1089 l 424 1306 q 533 1334 475 1333 q 646 1319 592 1335 q 754 1289 700 1304 q 867 1274 808 1274 q 976 1303 925 1275 l 976 1061 z "},"Ö":{"ha":1400,"x_min":38,"x_max":1363,"o":"m 685 994 q 808 989 747 994 q 937 969 868 983 q 1065 931 1006 954 q 1180 868 1124 907 q 1276 778 1236 829 q 1339 656 1315 728 q 1363 497 1363 583 q 1342 329 1363 404 q 1280 200 1321 254 q 1182 107 1239 146 q 1049 44 1125 68 q 886 10 972 21 q 694 0 800 0 q 198 126 358 0 q 38 515 38 253 q 60 660 38 593 q 119 774 82 726 q 208 861 157 822 q 317 924 260 900 q 440 965 375 949 q 565 988 504 981 q 685 994 625 994 m 697 256 q 927 310 849 256 q 1006 497 1006 365 q 992 585 1006 546 q 952 651 978 625 q 897 694 926 676 q 830 722 867 713 q 760 735 793 731 q 693 739 728 739 q 593 728 642 739 q 498 692 544 717 q 423 619 451 667 q 394 506 394 571 q 468 317 394 379 q 697 256 542 256 m 564 1109 q 544 1093 564 1109 q 466 1078 524 1078 q 368 1109 408 1078 q 328 1183 328 1140 q 347 1235 328 1211 q 397 1274 365 1260 q 467 1289 429 1289 q 564 1258 524 1289 q 604 1183 604 1226 q 564 1109 604 1140 m 1032 1109 q 1012 1093 1032 1109 q 934 1078 992 1078 q 836 1109 876 1078 q 796 1183 796 1140 q 836 1258 796 1226 q 934 1289 876 1289 q 1032 1258 992 1289 q 1072 1183 1072 1226 q 1032 1109 1072 1140 z "},"Ø":{"ha":1485,"x_min":38,"x_max":1447,"o":"m 1272 850 q 1413 513 1413 725 q 1382 315 1413 400 q 1296 174 1351 231 q 1156 81 1240 117 q 972 31 1072 46 q 744 15 872 15 q 463 44 583 15 l 418 1 l 38 0 l 215 172 q 89 531 89 297 q 117 696 89 621 q 197 822 146 771 q 310 910 247 872 q 449 969 374 949 q 594 1000 524 990 q 736 1010 665 1010 q 1035 972 900 1010 l 1086 1024 l 1447 1024 l 1272 850 m 444 521 q 463 414 444 460 l 807 750 q 744 754 775 754 q 644 743 693 754 q 548 707 594 732 q 473 634 501 682 q 444 521 444 586 m 749 271 q 978 326 899 271 q 1057 513 1057 381 q 1036 615 1057 569 l 692 274 q 749 271 721 271 z "},"Ù":{"ha":1335,"x_min":38,"x_max":1297,"o":"m 1296 975 l 1296 742 q 1283 388 1297 506 q 1229 192 1269 271 q 1031 42 1174 85 q 671 0 889 0 q 307 43 453 0 q 106 192 161 86 q 51 388 65 271 q 38 742 38 506 l 39 975 l 381 975 l 381 539 q 383 486 381 510 q 392 433 385 463 q 411 382 399 404 q 446 338 424 360 q 498 301 468 315 q 572 277 528 286 q 672 268 617 268 q 770 277 726 268 q 843 301 814 286 q 894 338 872 315 q 926 382 915 360 q 944 433 938 404 q 953 486 951 463 q 954 539 954 510 l 954 975 l 1296 975 m 922 1267 l 922 1025 l 371 1100 l 371 1344 l 922 1267 z "},"Ú":{"ha":1335,"x_min":38,"x_max":1297,"o":"m 1296 975 l 1296 742 q 1283 388 1297 506 q 1229 192 1269 271 q 1031 42 1174 85 q 671 0 889 0 q 307 43 453 0 q 106 192 161 86 q 51 388 65 271 q 38 742 38 506 l 39 975 l 381 975 l 381 539 q 383 486 381 510 q 392 433 385 463 q 411 382 399 404 q 446 338 424 360 q 498 301 468 315 q 572 277 528 286 q 672 268 617 268 q 770 277 726 268 q 843 301 814 286 q 894 338 872 315 q 926 382 915 360 q 944 433 938 404 q 953 486 951 463 q 954 539 954 510 l 954 975 l 1296 975 m 968 1344 l 968 1100 l 415 1025 l 415 1267 l 968 1344 z "},"Û":{"ha":1335,"x_min":38,"x_max":1297,"o":"m 1296 975 l 1296 742 q 1283 388 1297 506 q 1229 192 1269 271 q 1031 42 1174 85 q 671 0 889 0 q 307 43 453 0 q 106 192 161 86 q 51 388 65 271 q 38 742 38 506 l 39 975 l 381 975 l 381 539 q 385 465 381 497 q 406 393 389 432 q 454 328 424 354 q 540 285 485 303 q 672 268 596 268 q 802 285 747 268 q 885 328 857 303 q 931 392 914 353 q 951 464 947 432 q 954 539 954 496 l 954 975 l 1296 975 m 1011 1032 l 674 1110 l 324 1032 l 324 1249 l 674 1338 l 1011 1254 l 1011 1032 z "},"Ü":{"ha":1335,"x_min":38,"x_max":1297,"o":"m 1296 975 l 1296 742 q 1283 388 1297 506 q 1229 192 1269 271 q 1031 42 1174 85 q 671 0 889 0 q 307 43 453 0 q 106 192 161 86 q 51 388 65 271 q 38 742 38 506 l 39 975 l 381 975 l 381 539 q 385 465 381 497 q 406 393 389 432 q 454 328 424 354 q 540 285 485 303 q 672 268 596 268 q 802 285 747 268 q 885 328 857 303 q 931 392 914 353 q 951 464 947 432 q 954 539 954 496 l 954 975 l 1296 975 m 487 1088 q 474 1084 487 1088 q 433 1081 461 1081 q 380 1088 406 1081 q 335 1110 354 1096 q 306 1144 317 1125 q 296 1185 296 1164 q 314 1238 296 1214 q 364 1276 332 1263 q 433 1290 396 1290 q 503 1276 471 1290 q 553 1238 535 1263 q 571 1185 571 1214 q 560 1144 571 1164 q 531 1110 550 1125 q 487 1088 513 1096 m 999 1111 q 978 1096 999 1111 q 901 1081 958 1081 q 804 1111 844 1081 q 764 1185 764 1142 q 804 1259 764 1228 q 901 1290 844 1290 q 999 1259 958 1290 q 1039 1185 1039 1228 q 999 1111 1039 1142 z "},"ß":{"ha":1307,"x_min":38,"x_max":1269,"o":"m 896 510 q 1018 494 956 510 q 1138 450 1081 479 q 1233 368 1196 421 q 1269 249 1269 315 q 1254 142 1269 185 q 1206 71 1239 99 q 1123 28 1174 43 q 1003 8 1072 14 q 842 1 933 1 q 639 1 751 0 q 457 1 522 1 l 457 229 q 817 240 767 229 q 864 282 860 250 q 865 299 865 289 q 836 343 865 333 q 518 360 792 360 q 461 360 494 360 l 461 578 q 653 587 592 578 q 728 608 715 596 q 740 649 740 621 q 735 679 740 669 q 703 699 729 689 q 623 713 678 710 q 472 717 568 717 q 382 685 403 717 q 361 576 361 654 l 361 1 l 38 1 l 38 650 l 39 650 q 44 727 39 693 q 64 797 50 761 q 101 858 78 832 q 163 908 125 885 q 251 946 200 931 q 371 969 301 961 q 526 978 440 978 q 953 909 826 978 q 1079 679 1079 840 q 1068 599 1079 632 q 1041 549 1057 567 q 998 523 1025 532 q 949 512 971 514 q 896 510 928 510 z "},"à":{"ha":1246,"x_min":38,"x_max":1208,"o":"m 1146 606 q 1196 374 1185 514 q 1207 -1 1207 235 l 893 -1 q 893 72 893 33 q 551 -15 744 -15 q 455 -14 494 -15 q 357 -7 415 -12 q 258 8 299 -1 q 174 38 218 18 q 102 84 129 57 q 56 153 75 111 q 38 247 38 196 q 80 360 38 313 q 196 436 122 408 q 357 477 269 464 q 546 490 444 490 q 858 439 718 490 q 764 548 829 522 q 554 574 699 574 q 331 558 438 574 q 193 533 224 542 q 143 517 163 524 l 103 738 q 579 815 311 815 q 1146 606 1053 815 m 871 250 q 871 265 871 263 q 604 301 832 301 q 439 288 489 301 q 389 247 389 275 q 588 189 389 189 q 722 200 657 189 q 826 225 788 211 q 871 250 864 239 m 888 1093 l 888 885 l 335 958 l 335 1171 l 888 1093 z "},"á":{"ha":1246,"x_min":38,"x_max":1208,"o":"m 1146 606 q 1196 374 1185 514 q 1207 -1 1207 235 l 893 -1 q 893 72 893 33 q 551 -15 744 -15 q 455 -14 494 -15 q 357 -7 415 -12 q 258 8 299 -1 q 174 38 218 18 q 102 84 129 57 q 56 153 75 111 q 38 247 38 196 q 80 360 38 313 q 196 436 122 408 q 357 477 269 464 q 546 490 444 490 q 858 439 718 490 q 764 548 829 522 q 554 574 699 574 q 331 558 438 574 q 193 533 224 542 q 143 517 163 524 l 103 738 q 579 815 311 815 q 1146 606 1053 815 m 871 250 q 871 265 871 263 q 604 301 832 301 q 439 288 489 301 q 389 247 389 275 q 588 189 389 189 q 722 200 657 189 q 826 225 788 211 q 871 250 864 239 m 888 1171 l 888 958 l 335 885 l 335 1093 l 888 1171 z "},"â":{"ha":1246,"x_min":38,"x_max":1208,"o":"m 1146 606 q 1196 374 1185 514 q 1207 -1 1207 235 l 893 -1 q 893 72 893 33 q 551 -15 744 -15 q 455 -14 494 -15 q 357 -7 415 -12 q 258 8 299 -1 q 174 38 218 18 q 102 84 129 57 q 56 153 75 111 q 38 247 38 196 q 80 360 38 313 q 196 436 122 408 q 357 477 269 464 q 546 490 444 490 q 858 439 718 490 q 764 548 829 522 q 556 574 699 574 q 331 558 438 574 q 193 533 224 542 q 143 517 163 524 l 103 738 q 579 815 311 815 q 1146 606 1053 815 m 871 250 q 871 265 871 263 q 604 301 832 301 q 439 288 489 301 q 389 247 389 275 q 588 189 389 189 q 722 200 657 189 q 826 225 788 211 q 871 250 864 239 m 975 885 l 638 963 l 288 885 l 288 1101 l 638 1190 l 975 1107 l 975 885 z "},"ã":{"ha":1246,"x_min":38,"x_max":1208,"o":"m 1146 606 q 1196 374 1185 514 q 1207 -1 1207 235 l 893 -1 q 893 72 893 33 q 551 -15 744 -15 q 455 -14 494 -15 q 357 -7 415 -12 q 258 8 299 -1 q 174 38 218 18 q 102 84 129 57 q 56 153 75 111 q 38 247 38 196 q 80 360 38 313 q 196 436 122 408 q 357 476 269 464 q 546 489 444 489 q 858 439 718 489 q 764 548 829 522 q 554 574 699 574 q 331 558 438 574 q 193 533 224 542 q 143 517 163 524 l 103 738 q 579 815 311 815 q 1146 606 1053 815 m 871 250 q 871 265 871 263 q 604 301 832 301 q 439 288 489 301 q 389 247 389 275 q 588 189 389 189 q 774 210 689 189 q 871 250 858 232 m 931 926 q 822 897 881 899 q 708 911 763 896 q 601 942 654 926 q 488 956 547 957 q 379 926 429 954 l 379 1171 q 471 1199 422 1194 q 563 1192 519 1203 q 655 1169 606 1182 q 747 1147 704 1157 q 839 1140 790 1136 q 931 1168 888 1144 l 931 926 z "},"ä":{"ha":1246,"x_min":38,"x_max":1208,"o":"m 1146 606 q 1196 374 1185 514 q 1207 -1 1207 235 l 893 -1 q 893 72 893 33 q 551 -15 744 -15 q 455 -14 494 -15 q 357 -7 415 -12 q 258 8 299 -1 q 174 38 218 18 q 102 84 129 57 q 56 153 75 111 q 38 247 38 196 q 58 328 38 292 q 113 390 78 364 q 195 435 149 415 q 299 467 242 456 q 418 484 357 478 q 546 490 479 490 q 858 439 718 490 q 764 548 829 522 q 554 574 699 574 q 331 558 438 574 q 192 533 224 542 q 143 517 161 524 l 103 738 q 579 815 311 815 q 1146 606 1053 815 m 871 250 q 871 265 871 263 q 604 301 832 301 q 439 288 489 301 q 389 247 389 275 q 588 189 389 189 q 722 200 657 189 q 826 225 788 211 q 871 250 864 239 m 494 948 q 473 932 494 948 q 396 917 453 917 q 299 948 339 917 q 258 1022 258 979 q 299 1097 258 1065 q 396 1128 339 1128 q 465 1113 433 1128 q 516 1075 497 1099 q 535 1022 535 1051 q 494 948 535 979 m 962 948 q 941 932 962 948 q 864 917 921 917 q 767 948 807 917 q 726 1022 726 979 q 767 1097 726 1065 q 864 1128 807 1128 q 962 1097 921 1128 q 1003 1022 1003 1065 q 962 948 1003 979 z "},"å":{"ha":1246,"x_min":38,"x_max":1208,"o":"m 1146 621 q 1196 390 1185 529 q 1207 14 1207 250 l 893 14 q 893 88 893 49 q 551 0 744 0 q 455 1 494 0 q 357 8 415 3 q 258 24 299 14 q 174 53 218 33 q 102 99 129 72 q 56 169 75 126 q 38 263 38 211 q 80 376 38 328 q 196 451 122 424 q 357 492 269 479 q 546 506 444 506 q 858 454 718 506 q 764 563 829 538 q 554 589 699 589 q 331 573 438 589 q 193 548 224 557 q 143 532 163 539 l 103 753 q 579 831 311 831 q 1146 621 1053 831 m 871 265 q 871 281 871 278 q 604 317 832 317 q 439 303 489 317 q 389 263 389 290 q 588 204 389 204 q 774 226 689 204 q 871 265 858 247 m 819 980 q 776 952 819 980 q 613 924 733 924 q 406 980 492 924 q 319 1115 319 1036 q 406 1249 319 1193 q 613 1304 492 1304 q 819 1249 733 1304 q 904 1115 904 1193 q 819 980 904 1036 m 676 1164 q 663 1174 676 1164 q 613 1185 650 1185 q 549 1164 575 1185 q 522 1114 522 1143 q 534 1078 522 1094 q 567 1053 546 1063 q 613 1043 588 1043 q 676 1064 650 1043 q 703 1114 703 1085 q 676 1164 703 1143 z "},"æ":{"ha":1826,"x_min":38,"x_max":1793,"o":"m 1281 828 q 1460 812 1381 828 q 1605 760 1539 796 q 1712 667 1671 724 q 1773 525 1753 610 q 1786 329 1793 440 l 1056 329 q 1118 256 1063 289 q 1279 224 1174 224 q 1467 238 1372 224 q 1608 265 1561 251 l 1656 279 l 1778 75 q 1764 67 1774 72 q 1715 50 1754 63 q 1625 28 1675 38 q 1485 10 1575 18 q 1288 3 1394 3 q 876 114 1001 3 l 828 76 q 683 22 778 43 q 492 0 588 0 q 406 1 442 0 q 319 8 371 3 q 233 24 268 14 q 158 53 197 33 q 94 99 118 72 q 54 169 71 126 q 38 263 38 211 q 63 357 38 315 q 131 426 89 399 q 231 471 172 453 q 353 497 289 489 q 486 506 417 506 q 763 454 639 506 q 679 563 738 538 q 494 589 621 589 q 297 573 392 589 q 174 548 201 557 q 131 532 147 539 l 96 753 q 517 831 279 831 q 928 735 799 831 q 1281 828 1067 828 m 774 265 q 774 281 774 278 q 539 317 740 317 q 428 311 469 317 q 367 294 386 306 q 349 263 349 282 q 524 204 349 204 q 688 226 613 204 q 774 265 764 247 m 1056 500 l 1508 500 q 1282 606 1508 606 q 1168 595 1215 606 q 1098 567 1121 585 q 1065 533 1075 550 q 1056 500 1056 517 z "},"ç":{"ha":1239,"x_min":38,"x_max":1201,"o":"m 879 328 l 1201 283 q 1154 183 1189 246 l 1156 183 q 1142 164 1151 175 l 1142 163 q 1099 119 1126 142 q 1021 69 1071 97 q 885 21 971 42 q 694 -6 800 0 q 685 -60 686 -43 q 769 -65 738 -60 q 817 -81 801 -69 q 838 -108 833 -93 q 842 -147 842 -122 q 628 -310 842 -310 l 383 -306 l 421 -186 l 560 -186 q 624 -154 617 -186 q 604 -126 628 -133 q 590 -124 597 -124 l 435 -125 l 469 -3 q 256 41 343 8 q 123 127 169 74 q 57 242 76 181 q 38 388 38 304 q 65 540 38 471 q 142 659 93 610 q 261 742 192 708 q 416 792 331 776 q 599 808 501 808 q 818 791 719 808 q 973 751 917 774 q 1072 697 1029 728 q 1128 649 1114 667 q 1151 614 1143 631 q 1182 556 1169 586 q 1197 507 1194 525 l 1201 490 l 876 442 q 875 448 876 443 q 867 465 874 453 q 849 489 860 478 q 819 514 839 500 q 773 538 799 528 q 708 554 747 547 q 619 561 668 561 q 496 551 547 561 q 417 525 444 540 q 373 487 389 510 q 353 445 357 464 q 350 401 350 426 q 360 347 350 372 q 397 295 371 321 q 481 254 424 269 q 619 239 538 239 q 739 248 688 239 q 816 270 790 257 q 857 297 842 283 q 876 318 872 310 l 879 328 z "},"è":{"ha":1235,"x_min":38,"x_max":1206,"o":"m 624 824 q 872 799 767 824 q 1056 717 978 774 q 1169 562 1133 660 q 1194 326 1206 464 l 369 326 q 399 278 374 301 q 482 238 424 256 q 621 221 540 221 q 834 235 728 221 q 994 263 940 249 l 1047 276 l 1186 72 q 1171 65 1182 69 q 1115 47 1160 60 q 1013 25 1069 35 q 854 8 956 15 q 632 0 753 0 q 385 21 490 0 q 215 78 281 42 q 108 169 149 114 q 53 286 68 225 q 38 425 38 347 q 82 594 38 518 q 204 721 126 671 q 390 797 282 771 q 624 824 497 824 m 369 496 l 882 496 q 626 603 882 603 q 496 592 550 603 q 417 564 442 582 q 381 530 392 546 q 369 496 369 514 m 893 1138 l 893 896 l 342 969 l 342 1215 l 893 1138 z "},"é":{"ha":1235,"x_min":38,"x_max":1206,"o":"m 624 824 q 872 799 767 824 q 1056 717 978 774 q 1169 562 1133 660 q 1194 326 1206 464 l 369 326 q 399 278 374 301 q 482 238 424 256 q 621 221 540 221 q 834 235 728 221 q 994 263 940 249 l 1047 276 l 1186 72 q 1171 65 1182 69 q 1115 47 1160 60 q 1013 25 1069 35 q 854 8 956 15 q 632 0 753 0 q 385 21 490 0 q 215 78 281 42 q 108 169 149 114 q 53 286 68 225 q 38 425 38 347 q 82 594 38 518 q 204 721 126 671 q 390 797 282 771 q 624 824 497 824 m 369 496 l 882 496 q 626 603 882 603 q 496 592 550 603 q 417 564 442 582 q 381 530 392 546 q 369 496 369 514 m 893 1215 l 893 969 l 342 896 l 342 1138 l 893 1215 z "},"ê":{"ha":1235,"x_min":38,"x_max":1206,"o":"m 624 824 q 872 799 767 824 q 1056 717 978 774 q 1169 562 1133 660 q 1194 326 1204 464 l 369 326 q 440 253 376 286 q 621 221 503 221 q 834 235 728 221 q 994 263 940 249 l 1047 276 l 1186 72 q 1171 65 1182 69 q 1115 47 1160 60 q 1013 25 1069 35 q 854 8 956 15 q 632 0 753 0 q 385 21 490 0 q 215 78 281 42 q 108 169 149 114 q 53 286 68 225 q 38 425 38 347 q 114 641 38 550 q 322 778 190 732 q 624 824 453 824 m 369 496 l 882 496 q 626 603 882 603 q 517 595 564 603 q 442 576 469 588 q 398 551 415 565 q 375 523 381 536 q 369 496 369 510 m 969 896 l 632 975 l 282 896 l 282 1113 l 632 1203 l 969 1119 l 969 896 z "},"ë":{"ha":1235,"x_min":38,"x_max":1204,"o":"m 624 824 q 827 808 738 824 q 990 757 917 793 q 1111 664 1064 721 q 1181 522 1158 607 q 1194 326 1203 436 l 369 326 q 389 291 374 308 q 433 257 404 274 q 510 231 461 240 q 621 221 560 221 q 834 235 728 221 q 994 263 940 249 l 1047 276 l 1186 72 q 1171 65 1182 69 q 1115 47 1160 60 q 1013 25 1069 35 q 854 8 956 15 q 632 0 753 0 q 385 21 490 0 q 215 78 281 42 q 108 169 149 114 q 53 286 68 225 q 38 425 38 347 q 114 641 38 550 q 322 778 190 732 q 624 824 453 824 m 369 496 l 882 496 q 626 603 882 603 q 496 592 550 603 q 417 564 442 582 q 381 530 392 546 q 369 496 369 514 m 481 939 q 461 924 481 939 q 383 908 440 908 q 286 939 326 908 q 246 1013 246 969 q 286 1088 246 1057 q 383 1118 326 1118 q 453 1104 421 1118 q 503 1066 485 1090 q 522 1014 522 1042 q 481 939 522 969 m 851 908 q 782 922 814 908 q 732 960 750 936 q 714 1013 714 985 q 754 1088 714 1057 q 851 1118 794 1118 q 921 1104 889 1118 q 972 1066 953 1090 q 990 1014 990 1042 q 949 939 990 969 q 851 908 908 908 z "},"í":{"ha":446,"x_min":38,"x_max":408,"o":"m 61 0 l 61 804 l 385 804 l 385 0 l 61 0 m 38 1133 l 408 1210 l 408 965 l 38 892 l 38 1133 z "},"î":{"ha":551,"x_min":38,"x_max":514,"o":"m 114 0 l 114 804 l 438 804 l 438 0 l 114 0 m 281 1194 l 514 1111 l 514 888 l 281 967 l 38 888 l 38 1104 l 281 1194 z "},"ï":{"ha":757,"x_min":38,"x_max":719,"o":"m 217 0 l 217 804 l 540 804 l 540 0 l 217 0 m 274 1070 q 294 1055 274 1070 q 314 996 314 1039 q 274 922 314 953 q 176 890 233 890 q 107 905 139 890 q 56 944 75 919 q 38 996 38 968 q 78 1070 38 1039 q 176 1101 119 1101 q 274 1070 233 1101 m 483 1070 q 503 1086 483 1070 q 581 1101 524 1101 q 678 1070 638 1101 q 718 996 718 1039 q 678 922 718 953 q 581 890 638 890 q 483 922 524 890 q 443 996 443 953 q 483 1070 443 1039 z "},"ñ":{"ha":1181,"x_min":38,"x_max":1143,"o":"m 1094 640 q 1135 448 1128 565 q 1143 64 1143 331 l 1143 0 l 832 0 l 832 265 q 831 320 832 299 q 826 376 831 342 q 813 434 821 411 q 788 483 804 457 q 747 526 771 510 q 688 553 724 542 q 606 564 651 564 q 354 465 449 564 l 354 0 l 38 0 l 38 804 l 354 804 l 354 693 q 448 753 410 732 q 556 793 486 775 q 714 811 626 811 q 805 808 764 811 q 893 794 846 806 q 976 766 940 783 q 1044 717 1011 749 q 1094 640 1076 685 m 907 944 q 797 915 856 915 q 685 929 739 914 q 576 960 631 944 q 464 974 522 975 q 356 944 406 972 l 356 1189 q 464 1217 406 1217 q 576 1203 522 1218 q 685 1172 631 1188 q 797 1156 739 1156 q 907 1186 856 1157 l 907 944 z "},"ó":{"ha":1263,"x_min":38,"x_max":1225,"o":"m 618 821 q 728 817 674 821 q 844 800 782 813 q 958 768 906 788 q 1061 717 1011 749 q 1147 643 1111 685 q 1203 542 1182 601 q 1225 411 1225 482 q 1184 215 1225 296 q 1063 88 1143 133 q 876 21 982 42 q 626 0 769 0 q 181 104 325 0 q 38 425 38 208 q 64 562 38 500 q 135 666 90 624 q 238 739 181 708 q 361 787 294 769 q 491 813 428 804 q 618 821 554 821 m 629 229 q 763 245 710 229 q 849 302 817 261 q 881 411 881 343 q 856 502 881 464 q 790 559 832 540 q 709 585 749 578 q 626 592 669 592 q 544 583 585 592 q 467 556 504 575 q 406 501 429 538 q 382 417 382 465 q 442 275 382 321 q 629 229 503 229 m 899 1213 l 899 968 l 347 894 l 347 1136 l 899 1213 z "},"ô":{"ha":1263,"x_min":38,"x_max":1225,"o":"m 618 821 q 728 817 674 821 q 844 800 782 813 q 958 768 906 788 q 1061 717 1011 749 q 1147 643 1111 685 q 1203 542 1182 601 q 1225 411 1225 482 q 1184 215 1225 296 q 1063 88 1143 133 q 876 21 982 42 q 626 0 769 0 q 181 104 325 0 q 38 425 38 208 q 76 585 38 514 q 173 699 114 656 q 310 770 232 742 q 465 810 389 799 q 618 821 540 821 m 629 229 q 763 245 710 229 q 849 302 817 261 q 881 411 881 343 q 856 502 881 464 q 790 559 832 540 q 709 585 749 578 q 626 592 669 592 q 544 583 585 592 q 467 556 504 575 q 406 501 429 538 q 382 417 382 465 q 442 275 382 321 q 629 229 503 229 m 975 893 l 638 972 l 288 893 l 288 1110 l 638 1200 l 975 1117 l 975 893 z "},"õ":{"ha":1263,"x_min":38,"x_max":1225,"o":"m 618 821 q 728 817 674 821 q 844 800 782 813 q 958 768 906 788 q 1061 717 1011 749 q 1147 643 1111 685 q 1203 542 1182 601 q 1225 411 1225 482 q 1184 215 1225 296 q 1063 88 1143 133 q 876 21 982 42 q 626 0 769 0 q 181 104 325 0 q 38 425 38 208 q 64 562 38 500 q 135 666 90 624 q 238 739 181 708 q 361 787 294 769 q 491 813 428 804 q 618 821 554 821 m 629 229 q 817 270 753 229 q 881 411 881 311 q 856 502 881 464 q 790 559 832 540 q 709 585 749 578 q 626 592 669 592 q 572 588 599 592 q 518 577 546 585 q 466 556 490 569 q 423 524 442 542 q 393 478 404 506 q 382 417 382 450 q 442 275 382 321 q 629 229 503 229 m 907 969 q 798 940 857 940 q 685 954 739 939 q 578 984 632 969 q 465 998 524 999 q 356 969 406 997 l 356 1214 q 465 1242 406 1242 q 578 1228 524 1243 q 685 1197 632 1213 q 798 1181 739 1181 q 907 1210 857 1182 l 907 969 z "},"ö":{"ha":1263,"x_min":38,"x_max":1225,"o":"m 495 958 q 475 943 495 958 q 397 928 454 928 q 300 958 340 928 q 260 1033 260 989 q 300 1107 260 1076 q 397 1138 340 1138 q 467 1124 435 1138 q 517 1085 499 1110 q 536 1033 536 1061 q 495 958 536 989 m 963 958 q 943 943 963 958 q 865 928 922 928 q 768 958 808 928 q 728 1033 728 989 q 746 1085 728 1061 q 796 1124 764 1110 q 865 1138 828 1138 q 963 1107 922 1138 q 1004 1033 1004 1076 q 963 958 1004 989 m 618 821 q 728 817 674 821 q 844 800 782 813 q 958 768 906 788 q 1061 717 1011 749 q 1147 643 1111 685 q 1203 542 1182 601 q 1225 411 1225 482 q 1184 215 1225 296 q 1063 88 1143 133 q 876 21 982 42 q 626 0 769 0 q 181 104 325 0 q 38 425 38 208 q 76 585 38 514 q 173 699 114 656 q 310 770 232 742 q 465 810 389 799 q 618 821 540 821 m 629 229 q 763 245 710 229 q 849 302 817 261 q 881 411 881 343 q 856 502 881 464 q 790 559 832 540 q 709 585 749 578 q 626 592 669 592 q 544 583 585 592 q 467 556 504 575 q 406 501 429 538 q 382 417 382 465 q 442 275 382 321 q 629 229 503 229 z "},"ø":{"ha":1271,"x_min":38,"x_max":1233,"o":"m 1090 692 q 1233 401 1233 588 q 1192 206 1233 286 q 1071 80 1151 126 q 884 13 990 33 q 635 -8 778 -8 q 406 13 507 -8 l 353 -40 l 38 -40 l 183 101 q 47 417 47 206 q 85 575 47 504 q 181 689 122 646 q 319 760 240 732 q 473 799 397 789 q 626 810 549 810 q 885 782 768 810 l 926 824 l 1224 824 l 1090 692 m 390 408 q 408 319 390 357 l 676 581 q 635 582 656 582 q 553 574 593 582 q 476 547 514 565 q 414 492 438 528 q 390 408 390 457 m 638 221 q 825 262 761 221 q 889 401 889 303 q 874 476 889 443 l 615 221 q 638 221 631 221 z "},"ù":{"ha":1263,"x_min":38,"x_max":1225,"o":"m 906 806 l 1225 806 l 1225 0 l 906 0 l 906 124 q 551 1 783 1 q 258 42 364 1 q 100 193 151 83 q 50 389 63 272 q 38 742 38 506 l 39 806 l 347 806 l 347 540 q 349 487 347 508 q 355 435 350 465 q 369 383 360 404 q 397 338 379 361 q 441 301 415 315 q 506 278 467 288 q 594 268 546 268 q 906 394 765 268 l 906 806 m 907 1129 l 907 888 l 356 963 l 356 1207 l 907 1129 z "},"ú":{"ha":1263,"x_min":38,"x_max":1225,"o":"m 1203 806 l 1225 806 l 1225 0 l 906 0 l 906 124 q 551 1 783 1 q 258 42 364 1 q 100 193 151 83 q 50 389 63 272 q 38 742 38 506 l 39 806 l 347 806 l 347 540 q 349 487 347 508 q 355 435 350 465 q 369 383 360 404 q 397 338 379 361 q 441 301 415 315 q 506 278 467 288 q 594 268 546 268 q 906 394 765 268 l 906 806 l 1203 806 m 907 1207 l 907 963 l 356 888 l 356 1129 l 907 1207 z "},"û":{"ha":1263,"x_min":38,"x_max":1225,"o":"m 906 806 l 1225 806 l 1225 0 l 906 0 l 906 124 q 551 1 783 1 q 258 42 364 1 q 100 193 151 83 q 50 389 63 272 q 38 742 38 506 l 39 806 l 347 806 l 347 540 q 349 487 347 508 q 355 435 350 465 q 369 383 360 404 q 397 338 379 361 q 441 301 415 315 q 506 278 467 288 q 594 268 546 268 q 906 394 765 268 l 906 806 m 975 888 l 638 967 l 288 888 l 288 1106 l 638 1194 l 975 1111 l 975 888 z "},"ü":{"ha":1263,"x_min":38,"x_max":1225,"o":"m 906 806 l 1225 806 l 1225 0 l 906 0 l 906 124 q 551 1 783 1 q 258 42 364 1 q 100 193 151 83 q 50 389 63 272 q 38 742 38 506 l 39 806 l 347 806 l 347 540 q 349 487 347 508 q 355 435 350 465 q 369 383 360 404 q 397 338 379 361 q 441 301 415 315 q 506 278 467 288 q 594 268 546 268 q 906 394 765 268 l 906 806 m 526 960 q 506 945 526 960 q 429 929 486 929 q 332 960 372 929 q 292 1035 292 992 q 302 1076 292 1056 q 331 1110 313 1096 q 376 1132 350 1124 q 429 1140 401 1140 q 483 1132 457 1140 q 527 1110 508 1124 q 556 1076 546 1096 q 567 1035 567 1057 q 526 960 567 992 m 931 960 q 911 945 931 960 q 833 929 890 929 q 736 960 776 929 q 696 1035 696 992 q 707 1076 696 1056 q 736 1110 718 1096 q 780 1132 754 1124 q 833 1140 806 1140 q 931 1109 890 1140 q 972 1035 972 1078 q 931 960 972 992 z "},"œ":{"ha":2085,"x_min":38,"x_max":2056,"o":"m 1474 824 q 1722 799 1617 824 q 1906 717 1828 774 q 2020 562 1985 660 q 2044 326 2056 464 l 1219 326 q 1249 278 1225 301 q 1332 238 1274 256 q 1472 221 1390 221 q 1684 235 1578 221 q 1844 263 1790 249 l 1897 276 l 2038 72 q 2021 65 2032 69 q 1965 47 2010 60 q 1863 25 1919 35 q 1704 8 1806 15 q 1482 0 1603 0 q 1051 86 1196 0 q 626 4 908 4 q 181 108 325 4 q 38 429 38 213 q 76 589 38 518 q 173 703 114 660 q 310 774 232 746 q 465 814 389 803 q 618 825 540 825 q 1058 722 899 825 q 1474 824 1218 824 m 629 233 q 817 274 753 233 q 881 415 881 315 q 856 508 881 469 q 790 564 832 546 q 709 589 749 582 q 626 596 669 596 q 544 588 585 596 q 467 560 504 579 q 406 506 429 542 q 382 421 382 469 q 442 279 382 325 q 629 233 503 233 m 1219 496 l 1732 496 q 1476 603 1732 603 q 1346 592 1400 603 q 1267 564 1292 582 q 1231 530 1242 546 q 1219 496 1219 514 z "},"":{"ha":1246,"x_min":38,"x_max":1208,"o":"m 1207 975 l 747 488 l 1207 0 l 789 0 l 361 454 l 361 0 l 38 0 l 38 975 l 361 975 l 361 522 l 789 975 l 1207 975 z "},"":{"ha":1201,"x_min":38,"x_max":1164,"o":"m 1164 806 l 736 403 l 1164 0 l 744 0 l 361 372 l 361 0 l 38 0 l 38 975 l 361 975 l 361 433 l 744 806 l 1164 806 z "},"":{"ha":1489,"x_min":38,"x_max":1451,"o":"m 1060 975 l 1450 975 l 1057 0 l 982 0 l 742 1 l 475 0 l 431 0 l 38 975 l 429 975 l 744 147 l 1060 975 z "},"":{"ha":1326,"x_min":32,"x_max":1289,"o":"m 1244 357 q 1079 193 1176 269 l 1289 0 l 942 0 l 865 67 q 510 0 701 0 q 354 13 428 0 q 227 50 281 26 q 131 105 174 74 q 68 174 89 136 q 40 251 47 211 q 47 332 32 290 q 94 412 63 374 q 180 486 125 450 q 307 550 235 522 q 225 619 261 578 q 168 708 189 661 q 156 803 147 756 q 199 888 164 850 q 319 949 235 925 q 525 972 403 972 q 788 920 692 972 q 886 772 885 868 q 821 642 886 697 q 658 558 756 586 l 893 364 q 942 422 914 383 q 989 494 971 460 l 1244 357 m 631 743 q 610 779 631 764 q 562 799 590 794 q 506 802 533 804 q 458 788 478 800 q 438 758 438 776 q 463 709 438 735 q 513 669 488 683 l 538 656 q 548 660 542 657 q 570 672 554 663 q 599 690 586 681 q 621 715 611 700 q 631 743 631 729 m 292 325 q 346 254 292 281 q 483 227 400 228 q 664 247 565 226 l 432 449 q 292 325 292 397 z "},"":{"ha":1354,"x_min":38,"x_max":1317,"o":"m 958 806 l 1315 806 l 975 0 l 908 0 l 676 1 l 415 0 l 378 0 l 38 806 l 399 806 l 679 104 l 958 806 z "},"":{"ha":1325,"x_min":38,"x_max":1288,"o":"m 631 986 q 851 981 756 986 q 1016 963 947 975 q 1115 943 1085 950 q 1197 917 1146 936 q 1249 899 1247 899 l 1249 596 q 1089 643 1150 626 q 903 680 1028 660 q 663 700 779 700 q 425 685 447 700 q 417 660 417 678 q 422 644 418 649 q 449 633 425 639 q 521 624 474 628 q 663 617 568 621 q 898 599 801 608 q 1066 571 994 589 q 1179 532 1138 553 q 1246 476 1221 511 q 1278 401 1271 440 q 1286 303 1286 361 q 1277 193 1286 236 q 1241 114 1268 150 q 1172 58 1214 78 q 1053 24 1129 38 q 881 5 978 10 q 640 0 783 0 q 477 4 553 0 q 355 13 401 8 q 258 28 308 18 q 188 42 208 38 q 127 59 167 47 q 78 75 88 71 l 78 385 q 654 276 360 276 q 688 276 665 276 q 878 282 844 276 q 911 319 911 288 q 908 333 911 328 q 894 342 906 338 q 867 350 883 347 q 816 356 850 353 q 740 360 782 358 q 631 365 697 363 q 415 380 504 369 q 250 410 325 390 q 131 463 175 431 q 62 542 86 494 q 38 654 38 589 q 49 764 38 717 q 81 847 60 811 q 138 906 101 882 q 218 947 175 931 q 327 971 261 963 q 463 983 393 979 q 631 986 533 986 z "}}}
